<?xml version="1.0" encoding="utf-8"?>
<!-- Generator: Adobe Illustrator 28.0.0, SVG Export Plug-In . SVG Version: 6.00 Build 0)  -->
<svg version="1.1" id="Layer_1" xmlns="http://www.w3.org/2000/svg" xmlns:xlink="http://www.w3.org/1999/xlink" x="0px" y="0px"
	 viewBox="0 0 316.2 57" style="enable-background:new 0 0 316.2 57;" xml:space="preserve">
<style type="text/css">
	.st0{fill:#FFFFFF;}
	.st1{fill:url(#SVGID_1_);}
	.st2{fill:url(#SVGID_00000123410688675700547370000005489983007590018186_);}
	.st3{fill:url(#SVGID_00000064312883230171759650000017340204186483662509_);}
	.st4{fill:url(#SVGID_00000023960482136976102210000013692391858776664487_);}
	.st5{fill:url(#SVGID_00000000214836379921161600000003637227553530096274_);}
	.st6{fill:url(#SVGID_00000053520443797231803500000010376449206597044402_);}
	.st7{fill:url(#SVGID_00000165202142862708904720000003584287527630826914_);}
	.st8{fill:url(#SVGID_00000147901935600166171910000012856851448182291387_);}
	.st9{fill:url(#SVGID_00000011028421921436601980000015345149645245444284_);}
</style>
<g>
	<g>
		<g>
			<path class="st0" d="M87.7,28.2h10v1.2l-0.7,0c-0.6,0-0.9,0.5-1.2,1c-0.3,0.6-0.3,0.7-0.6,1.2c-0.6,1.2-1.4,2.1-2.5,2.8
				c-1.1,0.7-2.5,1-4.2,1c-1.7,0-3.2-0.4-4.5-1.3c-1.3-0.9-2.3-2.1-2.9-3.6c-0.7-1.6-1-3.4-1-5.5c0-2.2,0.3-4,1-5.6
				c0.7-1.6,1.6-2.8,2.9-3.6c1.2-0.9,2.7-1.3,4.3-1.3c1.6,0,2.9,0.3,3.9,0.9c1,0.6,1.8,1.5,2.3,2.5c0.5,1.1,0.8,2.2,0.9,3.4h1.3h1.9
				V11h-3.2v4.6c-0.8-1.4-1.9-2.5-3.3-3.3c-1.5-0.8-3.4-1.2-5.8-1.2c-2.5,0-4.7,0.5-6.7,1.7c-2,1.1-3.6,2.7-4.7,4.8
				c-1.2,2.1-1.7,4.6-1.7,7.5s0.6,5.5,1.8,7.6c1.2,2.1,2.8,3.7,4.8,4.8c2,1.1,4.4,1.7,6.9,1.7c2.6,0,4.7-0.5,6.3-1.5
				c1.5-1,2.7-2.3,3.4-4v4.9h3.3V28.2h3.3v-2.7H87.7V28.2z"/>
			<path class="st0" d="M120.7,18.9c-1.5-0.8-3.2-1.2-5.3-1.2c-2,0-3.8,0.4-5.4,1.3c-1.6,0.8-2.8,2-3.6,3.6
				c-0.9,1.6-1.3,3.5-1.3,5.7c0,2.2,0.4,4.1,1.3,5.7c0.9,1.6,2.1,2.8,3.7,3.6c1.6,0.8,3.3,1.3,5.4,1.3c1.6,0,3-0.2,4.1-0.7
				c1.2-0.5,2.2-1.1,3-2c0.8-0.8,1.4-1.8,1.8-2.8c0.4-1,0.6-2.1,0.7-3.2h-2.9c-0.1,0.8-0.4,1.5-0.8,2.2c-0.4,0.7-1,1.2-1.7,1.7
				c-0.7,0.4-1.7,0.6-2.8,0.6c-1.8,0-3.3-0.6-4.3-1.8c-0.6-0.7-1-1.5-1.2-2.4c-0.2-0.6-0.7-1.1-1.4-1.1h-0.8v-1.2h1.9h14v-1
				c0-1.9-0.4-3.5-1.1-4.9C123.3,20.9,122.2,19.7,120.7,18.9z M111.2,25.5c0.1-0.7,0.2-1.4,0.4-1.9c0.4-1,0.9-1.8,1.6-2.3
				c0.7-0.5,1.4-0.7,2.3-0.7c0.8,0,1.5,0.2,2,0.6c0.5,0.4,0.9,1,1.2,1.7c0.3,0.7,0.4,1.6,0.5,2.6H111.2z"/>
			<path class="st0" d="M146,22.2C146.1,22.2,145.9,22.1,146,22.2L146,22.2z"/>
			<path class="st0" d="M143.3,33.9h-9.5c-0.7,0-1.3-0.2-1.7-0.5c-0.4-0.3-0.6-0.8-0.6-1.4c0-0.6,0.2-1.1,0.6-1.4
				c0.2-0.2,0.4-0.3,0.7-0.4c0.2,0.1,0.3,0.2,0.5,0.2c1.4,0.5,3,0.8,4.9,0.8c2.8,0,5-0.5,6.5-1.7c1.6-1.1,2.4-2.6,2.4-4.4
				c0-0.3,0-0.7-0.1-1c-0.2-1.2-1.2-2.1-2.4-2.1h-1.2V21h0.5h5.5v-3h-11.2c-2.9,0-5.1,0.6-6.8,1.8c-1.7,1.2-2.5,2.8-2.5,4.9
				c0,1.4,0.4,2.6,1.1,3.6c0.3,0.4,0.7,0.8,1.1,1.1c-0.3,0.1-0.6,0.2-1,0.3c-0.9,0.4-1.7,0.9-2.2,1.7c-0.5,0.7-0.8,1.6-0.8,2.6
				c0,1.4,0.5,2.7,1.6,3.5c0.8,0.6,1.7,1.1,2.8,1.3c0,0,0,0-0.1,0c-0.8,0.3-1.5,0.7-2,1.2c-0.5,0.5-0.8,1.2-0.8,2
				c0,1.4,0.6,2.4,1.8,3c1.2,0.6,2.8,0.9,4.8,0.9h5.6c1.9,0,3.5-0.3,4.8-0.9c1.3-0.6,2.3-1.4,2.9-2.4c0.6-1,1-2.3,1-3.6
				c0-1.6-0.5-2.8-1.6-3.7C147,34.4,145.4,33.9,143.3,33.9z M136,21.6c0.6-0.8,1.3-1.1,2.3-1.1c1,0,1.8,0.4,2.4,1.1s0.9,1.8,0.9,3
				c0,1.3-0.3,2.3-0.9,3c-0.6,0.8-1.4,1.1-2.4,1.1c-1,0-1.8-0.4-2.3-1.1c-0.6-0.8-0.9-1.8-0.9-3C135.1,23.4,135.4,22.4,136,21.6z
				 M144.2,42c-0.2,0.4-0.6,0.7-1.1,0.9c-0.5,0.2-1.1,0.3-1.9,0.3h-4.6c-1.1,0-1.9-0.2-2.5-0.6c-0.6-0.4-0.8-1-0.8-1.8
				c0-0.3,0.1-0.6,0.2-0.9c0.1-0.3,0.3-0.5,0.5-0.7c0.1-0.1,0.2-0.2,0.3-0.2h7.9c0.8,0,1.4,0.2,1.8,0.5c0.4,0.3,0.7,0.8,0.7,1.4
				C144.5,41.2,144.4,41.7,144.2,42z"/>
			<path class="st0" d="M166.4,17.6c-1.3,0-2.5,0.3-3.5,0.8c-1.1,0.5-1.9,1.4-2.6,2.6c0,0,0,0.1,0,0.1V18H152v3h0.4h4.4v1.2h-0.7
				c-0.7,0-1.2,0.5-1.2,1.2v12.1h-3.2v2.9h14.4v-2.9h-5.3V26c0-1.4,0.2-2.6,0.7-3.5c0.5-0.9,1.1-1.6,1.8-2c0.7-0.4,1.5-0.6,2.3-0.6
				c0.2,0,0.5,0,0.7,0c-0.3,0.1-0.5,0.2-0.7,0.4c-0.6,0.5-0.9,1.2-0.9,2c0,0.8,0.3,1.4,0.8,1.9c0.5,0.5,1.3,0.7,2.2,0.7
				c1,0,1.8-0.3,2.4-0.9c0.6-0.6,0.9-1.4,0.9-2.4c0-1.2-0.4-2.1-1.3-2.9C168.9,18,167.8,17.6,166.4,17.6z"/>
			<path class="st0" d="M217.3,19c-1.3-0.8-2.9-1.2-4.6-1.2c-1.9,0-3.4,0.4-4.6,1.3c-1,0.8-1.8,1.8-2.4,3.1V18h-8.5v3h5v1.2h-0.8
				c-0.7,0-1.2,0.6-1.2,1.2v19.6h-3.1V46h14.2v-2.9h-5.1v-8c0.5,1,1.1,1.9,2,2.5c1.1,0.9,2.6,1.3,4.5,1.3c1.8,0,3.3-0.4,4.6-1.2
				c1.3-0.8,2.4-2,3.1-3.6c0.7-1.6,1.1-3.5,1.1-5.8c0-2.3-0.4-4.2-1.1-5.8C219.7,21,218.7,19.8,217.3,19z M214.5,32.2
				c-0.4,1.1-0.9,1.9-1.6,2.4c-0.7,0.5-1.5,0.8-2.4,0.8c-0.9,0-1.8-0.3-2.5-0.8c-0.7-0.5-1.2-1.3-1.6-2.4c-0.4-1.1-0.6-2.4-0.6-3.9
				c0-1.6,0.2-2.8,0.6-3.9c0.4-1.1,0.9-1.9,1.6-2.4c0.7-0.5,1.5-0.8,2.5-0.8c1,0,1.8,0.3,2.4,0.8c0.7,0.5,1.2,1.3,1.6,2.4
				c0.4,1.1,0.6,2.4,0.6,3.9C215.1,29.8,214.9,31.1,214.5,32.2z"/>
			<path class="st0" d="M245.3,35.5V24.5c0-2.3-0.6-4-1.8-5c-1.2-1.1-2.7-1.6-4.5-1.6c-1.7,0-3,0.3-3.9,0.9c-1,0.6-1.6,1.5-2,2.7
				c-0.1,0.2-0.1,0.4-0.2,0.6V11H224V14h4.9v1.2H228c-0.7,0-1.2,0.5-1.2,1.2v19.2h-3.1v2.9h11.4v-2.9h-2.3v-9.8
				c0-1.1,0.2-1.9,0.5-2.5c0.3-0.6,0.8-1,1.3-1.3c0.5-0.3,1.1-0.4,1.7-0.4c0.9,0,1.6,0.2,2.1,0.7c0.5,0.5,0.8,1.2,0.8,2.2v10.9H237
				v2.9h10.7v-2.9H245.3z"/>
			<path class="st0" d="M193.2,33.4c0,0.5-0.1,0.9-0.4,1.2c-0.3,0.3-0.6,0.5-1.1,0.5c-0.4,0-0.8-0.2-1-0.5c-0.3-0.3-0.4-0.7-0.4-1.2
				v-9.2c0-2.2-0.6-3.8-2-4.8c-1.3-1-3.3-1.6-5.8-1.6c-1.5,0-3,0.2-4.3,0.6c-1.3,0.4-2.4,1-3.3,1.7c-0.8,0.8-1.2,1.7-1.2,2.9
				c0,1,0.3,1.8,1,2.3c0.7,0.5,1.5,0.7,2.3,0.7c0.9,0,1.6-0.2,2.2-0.7c0.5-0.4,0.8-1,0.8-1.8c0-0.8-0.3-1.4-0.9-1.8
				c-0.4-0.2-0.8-0.4-1.4-0.4c0.4-0.3,0.8-0.5,1.3-0.6c0.7-0.2,1.3-0.3,2.1-0.3c1.1,0,2,0.3,2.7,0.8c0.6,0.5,1,1.3,1,2.4
				c0,0.6-0.1,1.1-0.4,1.5c-0.3,0.4-0.6,0.7-1.1,1c-0.5,0.3-1.1,0.5-1.8,0.6l-3.4,0.9c-1.2,0.3-2.2,0.7-3.2,1.2
				c-0.9,0.5-1.6,1.1-2.2,1.9c-0.5,0.8-0.8,1.8-0.8,3c0,1.6,0.6,2.9,1.8,3.9c1.2,1,2.8,1.5,4.8,1.5c1.5,0,2.8-0.3,3.9-0.9
				c1.1-0.6,1.9-1.5,2.5-2.7c0,0,0,0,0,0c0.4-0.7,0.5-1.6,0.5-2.4h0.3h0.8v1.7c0,2.3,1.9,4.3,4.2,4.3c1.9,0,3.3-0.5,4.2-1.6
				c0.9-1.1,1.3-2.5,1.3-4.3v-7.2h-3.2V33.4z M184.8,30.3c0,1.1-0.2,2-0.5,2.6c-0.4,0.7-0.8,1.1-1.4,1.4c-0.6,0.3-1.2,0.5-1.9,0.5
				c-0.8,0-1.5-0.2-2-0.7c-0.5-0.4-0.8-1.1-0.8-1.9c0-0.5,0.1-1,0.4-1.4c0.2-0.4,0.6-0.7,1-1c0.4-0.3,1-0.5,1.6-0.8l1.1-0.4
				c0.7-0.2,1.2-0.5,1.6-0.8c0.4-0.3,0.7-0.7,0.9-1.1V30.3z"/>
		</g>
	</g>
	<g>
		<linearGradient id="SVGID_1_" gradientUnits="userSpaceOnUse" x1="-6.9108" y1="12.3125" x2="14.794" y2="64.6796">
			<stop  offset="0" style="stop-color:#EF8C21"/>
			<stop  offset="0.1412" style="stop-color:#EE6B23"/>
			<stop  offset="0.3962" style="stop-color:#ED3525"/>
			<stop  offset="0.5201" style="stop-color:#EC2026"/>
			<stop  offset="0.6018" style="stop-color:#E8202C"/>
			<stop  offset="0.7122" style="stop-color:#DC203D"/>
			<stop  offset="0.839" style="stop-color:#C9215A"/>
			<stop  offset="0.9772" style="stop-color:#AF2181"/>
			<stop  offset="1" style="stop-color:#AA2188"/>
		</linearGradient>
		<path class="st1" d="M1.1,36.4c0.5,1.9,1.3,3.6,2.2,5.3c0.9-1,2.1-1.7,3.3-2.1c-1.7-0.4-3.1-1-4.4-2.1C1.8,37.2,1.4,36.8,1.1,36.4
			z"/>
		
			<linearGradient id="SVGID_00000021834598799956850850000004426567946214300087_" gradientUnits="userSpaceOnUse" x1="-3.7157" y1="10.9882" x2="17.9891" y2="63.3553">
			<stop  offset="0" style="stop-color:#EF8C21"/>
			<stop  offset="0.1412" style="stop-color:#EE6B23"/>
			<stop  offset="0.3962" style="stop-color:#ED3525"/>
			<stop  offset="0.5201" style="stop-color:#EC2026"/>
			<stop  offset="0.6018" style="stop-color:#E8202C"/>
			<stop  offset="0.7122" style="stop-color:#DC203D"/>
			<stop  offset="0.839" style="stop-color:#C9215A"/>
			<stop  offset="0.9772" style="stop-color:#AF2181"/>
			<stop  offset="1" style="stop-color:#AA2188"/>
		</linearGradient>
		<path style="fill:url(#SVGID_00000021834598799956850850000004426567946214300087_);" d="M4.6,25.2c0.5-0.2,1-0.4,1.5-0.5
			c-0.7-0.5-1.2-1.1-1.7-1.8c-1.2-1.6-1.8-3.5-1.8-5.7c0-0.2,0-0.3,0-0.5C0.9,20.3,0,24.3,0,28.5c0,0.5,0,0.9,0,1.4
			c0.2-0.8,0.5-1.5,1-2.1C1.9,26.7,3.1,25.8,4.6,25.2z"/>
		
			<linearGradient id="SVGID_00000005242015316712484240000003735505653217856431_" gradientUnits="userSpaceOnUse" x1="12.0621" y1="4.4488" x2="33.7669" y2="56.8158">
			<stop  offset="0" style="stop-color:#EF8C21"/>
			<stop  offset="0.1412" style="stop-color:#EE6B23"/>
			<stop  offset="0.3962" style="stop-color:#ED3525"/>
			<stop  offset="0.5201" style="stop-color:#EC2026"/>
			<stop  offset="0.6018" style="stop-color:#E8202C"/>
			<stop  offset="0.7122" style="stop-color:#DC203D"/>
			<stop  offset="0.839" style="stop-color:#C9215A"/>
			<stop  offset="0.9772" style="stop-color:#AF2181"/>
			<stop  offset="1" style="stop-color:#AA2188"/>
		</linearGradient>
		<path style="fill:url(#SVGID_00000005242015316712484240000003735505653217856431_);" d="M17.3,10.6c-1.6,0-2.8,0.6-3.7,1.8
			c-0.9,1.2-1.4,2.8-1.4,4.8c0,2,0.5,3.6,1.4,4.8c0.9,1.2,2.1,1.8,3.7,1.8s2.9-0.6,3.8-1.8c0.9-1.2,1.4-2.8,1.4-4.8
			c0-2-0.5-3.6-1.4-4.8C20.2,11.2,18.9,10.6,17.3,10.6z"/>
		
			<linearGradient id="SVGID_00000152253694405778505330000017737291171906008740_" gradientUnits="userSpaceOnUse" x1="7.5009" y1="6.3393" x2="29.2057" y2="58.7063">
			<stop  offset="0" style="stop-color:#EF8C21"/>
			<stop  offset="0.1412" style="stop-color:#EE6B23"/>
			<stop  offset="0.3962" style="stop-color:#ED3525"/>
			<stop  offset="0.5201" style="stop-color:#EC2026"/>
			<stop  offset="0.6018" style="stop-color:#E8202C"/>
			<stop  offset="0.7122" style="stop-color:#DC203D"/>
			<stop  offset="0.839" style="stop-color:#C9215A"/>
			<stop  offset="0.9772" style="stop-color:#AF2181"/>
			<stop  offset="1" style="stop-color:#AA2188"/>
		</linearGradient>
		<path style="fill:url(#SVGID_00000152253694405778505330000017737291171906008740_);" d="M12.4,33.3c1.4,0,2.8,0,4.3,0
			c2.9,0,5.7,0,8.6,0c0-2.9,0.5-5.4,1.4-7.5c-2.4,1.3-5.5,2.1-9.4,2.1c-3,0-5.6-0.4-7.8-1.3c-0.3-0.1-0.5-0.2-0.8-0.3
			c-0.5,0.1-0.8,0.3-1.2,0.6c-2,1.6-1.4,5.4,1,6.2C9.8,33.5,11.1,33.3,12.4,33.3z"/>
		
			<linearGradient id="SVGID_00000152986287264850422960000004033853788588578460_" gradientUnits="userSpaceOnUse" x1="3.7288" y1="7.9027" x2="25.4335" y2="60.2698">
			<stop  offset="0" style="stop-color:#EF8C21"/>
			<stop  offset="0.1412" style="stop-color:#EE6B23"/>
			<stop  offset="0.3962" style="stop-color:#ED3525"/>
			<stop  offset="0.5201" style="stop-color:#EC2026"/>
			<stop  offset="0.6018" style="stop-color:#E8202C"/>
			<stop  offset="0.7122" style="stop-color:#DC203D"/>
			<stop  offset="0.839" style="stop-color:#C9215A"/>
			<stop  offset="0.9772" style="stop-color:#AF2181"/>
			<stop  offset="1" style="stop-color:#AA2188"/>
		</linearGradient>
		<path style="fill:url(#SVGID_00000152986287264850422960000004033853788588578460_);" d="M14.4,46.1h7.4c0.4,0,0.9,0,1.3-0.1
			c1.1-0.1,2.1-0.5,2.9-1.3c0.2-0.2,0.3-0.4,0.5-0.6c0.5-0.7,0.7-1.6,0.4-2.4c-0.6-1.5-2.3-1.7-3.7-1.7H10.6
			c-0.2,0.1-0.3,0.2-0.5,0.4c-0.4,0.3-0.6,0.7-0.8,1.1c-0.1,0.2-0.1,0.5-0.2,0.7c0.1,1.2,0.4,2.3,1.2,2.9
			C11.3,45.7,12.6,46.1,14.4,46.1z"/>
		
			<linearGradient id="SVGID_00000047757878037435545430000011093339540359573424_" gradientUnits="userSpaceOnUse" x1="10.4207" y1="5.1291" x2="32.1255" y2="57.4962">
			<stop  offset="0" style="stop-color:#EF8C21"/>
			<stop  offset="0.1412" style="stop-color:#EE6B23"/>
			<stop  offset="0.3962" style="stop-color:#ED3525"/>
			<stop  offset="0.5201" style="stop-color:#EC2026"/>
			<stop  offset="0.6018" style="stop-color:#E8202C"/>
			<stop  offset="0.7122" style="stop-color:#DC203D"/>
			<stop  offset="0.839" style="stop-color:#C9215A"/>
			<stop  offset="0.9772" style="stop-color:#AF2181"/>
			<stop  offset="1" style="stop-color:#AA2188"/>
		</linearGradient>
		<path style="fill:url(#SVGID_00000047757878037435545430000011093339540359573424_);" d="M33.2,48.3c-0.6-0.3-1.2-0.7-1.8-1.1
			c-0.1,0.1-0.1,0.1-0.2,0.2c-2.4,2.6-6.2,2.9-9.6,2.9h-9c-0.9,0-1.8,0-2.6-0.1c5,4.2,11.4,6.8,18.5,6.8c7.5,0,14.3-2.9,19.4-7.6
			c-1.8,0.6-3.8,0.9-6.1,0.9C38.6,50.3,35.7,49.7,33.2,48.3z"/>
		
			<linearGradient id="SVGID_00000085237399528387244070000013556787231113276289_" gradientUnits="userSpaceOnUse" x1="28.8769" y1="-2.5205" x2="50.5816" y2="49.8466">
			<stop  offset="0" style="stop-color:#EF8C21"/>
			<stop  offset="0.1412" style="stop-color:#EE6B23"/>
			<stop  offset="0.3962" style="stop-color:#ED3525"/>
			<stop  offset="0.5201" style="stop-color:#EC2026"/>
			<stop  offset="0.6018" style="stop-color:#E8202C"/>
			<stop  offset="0.7122" style="stop-color:#DC203D"/>
			<stop  offset="0.839" style="stop-color:#C9215A"/>
			<stop  offset="0.9772" style="stop-color:#AF2181"/>
			<stop  offset="1" style="stop-color:#AA2188"/>
		</linearGradient>
		<path style="fill:url(#SVGID_00000085237399528387244070000013556787231113276289_);" d="M45.1,22.1c-0.8-0.7-1.9-1-3.2-1
			c-1.4,0-2.7,0.4-3.7,1.2c-1.1,0.8-1.9,2-2.5,3.7c-0.3,0.9-0.5,1.9-0.7,3h12.8c0-1.6-0.3-2.9-0.8-4.1C46.6,23.7,46,22.7,45.1,22.1z
			"/>
		
			<linearGradient id="SVGID_00000094587053135875414060000012159452504244712602_" gradientUnits="userSpaceOnUse" x1="25.6291" y1="-1.1677" x2="47.3338" y2="51.1993">
			<stop  offset="0" style="stop-color:#EF8C21"/>
			<stop  offset="0.1412" style="stop-color:#EE6B23"/>
			<stop  offset="0.3962" style="stop-color:#ED3525"/>
			<stop  offset="0.5201" style="stop-color:#EC2026"/>
			<stop  offset="0.6018" style="stop-color:#E8202C"/>
			<stop  offset="0.7122" style="stop-color:#DC203D"/>
			<stop  offset="0.839" style="stop-color:#C9215A"/>
			<stop  offset="0.9772" style="stop-color:#AF2181"/>
			<stop  offset="1" style="stop-color:#AA2188"/>
		</linearGradient>
		<path style="fill:url(#SVGID_00000094587053135875414060000012159452504244712602_);" d="M35.3,6.7v4.8h-9.7v1.9h1.9
			c1.9,0,3.6,1.4,3.9,3.3c0.1,0.5,0.1,1.1,0.1,1.6c0,0.5-0.1,1-0.2,1.5c0.6-0.4,1.2-0.8,1.8-1.2c2.5-1.3,5.3-2,8.5-2
			c3.4,0,6.2,0.6,8.5,1.9c2.3,1.3,4,3.1,5.2,5.3c0.7,1.4,1.3,3,1.5,4.7C57,12.8,44.2,0,28.5,0C20.6,0,13.4,3.2,8.2,8.5
			c2.5-1.2,5.5-1.8,9.2-1.8H35.3z"/>
		
			<linearGradient id="SVGID_00000005977732440924696340000006250958223822421173_" gradientUnits="userSpaceOnUse" x1="28.9829" y1="-2.5645" x2="50.6877" y2="49.8026">
			<stop  offset="0" style="stop-color:#EF8C21"/>
			<stop  offset="0.1412" style="stop-color:#EE6B23"/>
			<stop  offset="0.3962" style="stop-color:#ED3525"/>
			<stop  offset="0.5201" style="stop-color:#EC2026"/>
			<stop  offset="0.6018" style="stop-color:#E8202C"/>
			<stop  offset="0.7122" style="stop-color:#DC203D"/>
			<stop  offset="0.839" style="stop-color:#C9215A"/>
			<stop  offset="0.9772" style="stop-color:#AF2181"/>
			<stop  offset="1" style="stop-color:#AA2188"/>
		</linearGradient>
		<path style="fill:url(#SVGID_00000005977732440924696340000006250958223822421173_);" d="M31.9,35.2h1.3c1,0,1.9,0.7,2.2,1.7
			c0.4,1.5,1.1,2.8,2,3.9c1.7,1.9,3.9,2.9,6.9,2.9c1.8,0,3.2-0.3,4.4-1c1.2-0.7,2.1-1.6,2.7-2.7c0.6-1.1,1.1-2.2,1.3-3.5h3.3
			c0.3-1,0.5-2.1,0.7-3.2H31.9V35.2z"/>
	</g>
	<g>
		<path class="st0" d="M266.5,26.7c0.2-0.3,0.3-0.6,0.4-0.8l-1.1-0.3c0,0.2-0.1,0.4-0.2,0.6s-0.3,0.4-0.5,0.7
			c-0.2,0.2-0.5,0.4-0.8,0.5c-0.3,0.1-0.7,0.2-1.1,0.2c-0.8,0-1.5-0.3-2-0.9c-0.5-0.6-0.8-1.3-0.8-2.2c0-0.9,0.3-1.6,0.8-2.2
			c0.5-0.6,1.2-0.9,2-0.9c0.6,0,1.2,0.2,1.7,0.5c0.5,0.3,0.8,0.8,0.9,1.3l1.1-0.3c-0.1-0.8-0.6-1.4-1.3-1.8
			c-0.7-0.4-1.5-0.7-2.5-0.7c-1.1,0-2,0.4-2.8,1.1c-0.7,0.8-1.1,1.7-1.1,2.9c0,1.2,0.4,2.1,1.1,2.9c0.7,0.8,1.7,1.1,2.8,1.1
			c0.6,0,1.1-0.1,1.6-0.3c0.5-0.2,0.8-0.4,1.1-0.7C266.1,27.2,266.3,27,266.5,26.7z"/>
		<path class="st0" d="M272.7,20.7c-1.1-0.1-1.7,0-2.1,0.2c-0.4,0.2-0.7,0.5-0.9,0.9v-1h-1.1v7.4h1.1V24c0-0.4,0-0.7,0-0.9
			c0-0.4,0.2-0.8,0.6-1.1c0.5-0.3,1.2-0.4,1.8-0.3c0.2,0,0.4,0.1,0.6,0.1V20.7z"/>
		<path class="st0" d="M277.3,20.5c-1.1,0-2.1,0.4-2.8,1.1c-0.7,0.7-1.1,1.7-1.1,2.8c0,1.2,0.4,2.2,1.1,2.9c0.7,0.8,1.7,1.2,2.8,1.2
			c0.6,0,1.1-0.1,1.5-0.2s0.8-0.4,1.1-0.6c0.3-0.3,0.5-0.5,0.7-0.7c0.2-0.2,0.3-0.5,0.4-0.7l-1-0.4c0,0.2-0.1,0.3-0.3,0.5
			c-0.1,0.2-0.3,0.4-0.5,0.6c-0.2,0.2-0.5,0.3-0.8,0.5c-0.3,0.1-0.7,0.2-1.1,0.1c-0.7,0-1.4-0.3-1.9-0.8c-0.5-0.5-0.8-1.1-0.9-1.9
			l6.7,0c0-0.1,0-0.3,0-0.4c0-1.1-0.4-2.1-1.1-2.8C279.3,20.8,278.4,20.5,277.3,20.5z M274.5,23.9c0.1-0.7,0.4-1.3,0.9-1.7
			c0.5-0.4,1.1-0.7,1.8-0.7c0.7,0,1.4,0.2,1.9,0.7c0.5,0.4,0.8,1,0.9,1.7L274.5,23.9z"/>
		<path class="st0" d="M289.4,26.9v1.3h1.1v-7.4h-1.1v1.3c-0.3-0.5-0.7-0.9-1.3-1.2c-0.5-0.3-1.1-0.4-1.7-0.4c-1.1,0-2,0.4-2.7,1.1
			c-0.7,0.8-1.1,1.7-1.1,2.9c0,1.2,0.4,2.1,1.1,2.9c0.7,0.8,1.6,1.1,2.7,1.1c0.6,0,1.2-0.1,1.7-0.4C288.6,27.8,289,27.4,289.4,26.9z
			 M284.5,26.6c-0.5-0.6-0.8-1.3-0.8-2.1c0-0.9,0.3-1.6,0.8-2.1c0.5-0.6,1.2-0.8,2-0.8c0.8,0,1.5,0.3,2,0.8c0.5,0.6,0.8,1.3,0.8,2.1
			c0,0.9-0.3,1.6-0.8,2.1c-0.5,0.6-1.2,0.8-2,0.8C285.7,27.5,285,27.2,284.5,26.6z"/>
		<path class="st0" d="M298.6,17.9c-0.2,0-0.4,0.1-0.6,0.2c-0.1,0.1-0.2,0.3-0.2,0.5c0,0.2,0.1,0.4,0.2,0.6c0.1,0.1,0.3,0.2,0.6,0.2
			s0.4-0.1,0.6-0.2c0.1-0.1,0.2-0.3,0.2-0.5s-0.1-0.4-0.2-0.5C299.1,17.9,298.9,17.9,298.6,17.9z"/>
		<rect x="298.1" y="20.8" class="st0" width="1.1" height="7.4"/>
		<polygon class="st0" points="304.2,27.3 301.7,20.8 300.5,20.8 303.4,28.2 305,28.2 307.8,20.8 306.6,20.8 		"/>
		<path class="st0" d="M316.2,24.4c0-1.1-0.4-2.1-1.1-2.8c-0.7-0.7-1.7-1.1-2.8-1.1c-1.1,0-2.1,0.4-2.8,1.1
			c-0.7,0.7-1.1,1.7-1.1,2.8c0,1.2,0.4,2.2,1.1,2.9c0.7,0.8,1.7,1.2,2.8,1.2c0.6,0,1.1-0.1,1.5-0.2s0.8-0.4,1.1-0.6
			c0.3-0.3,0.5-0.5,0.7-0.7c0.2-0.2,0.3-0.5,0.4-0.7l-1-0.4c0,0.2-0.1,0.3-0.3,0.5c-0.1,0.2-0.3,0.4-0.5,0.6
			c-0.2,0.2-0.5,0.3-0.8,0.5c-0.3,0.1-0.7,0.2-1.1,0.1c-0.7,0-1.4-0.3-1.9-0.8c-0.5-0.5-0.8-1.1-0.9-1.9l6.7,0
			C316.2,24.8,316.2,24.6,316.2,24.4z M309.6,23.9c0.1-0.7,0.4-1.3,0.9-1.7c0.5-0.4,1.1-0.7,1.8-0.7c0.7,0,1.4,0.2,1.9,0.7
			c0.5,0.4,0.8,1,0.9,1.7L309.6,23.9z"/>
		<path class="st0" d="M263.6,33.2c-0.2-0.3-0.5-0.6-0.8-0.7c-0.3-0.2-0.7-0.3-1.1-0.3c-0.7,0-1.2,0.2-1.7,0.7
			c-0.4,0.5-0.7,1-0.7,1.8c0,0.7,0.2,1.3,0.7,1.8c0.4,0.5,1,0.7,1.7,0.7c0.4,0,0.7-0.1,1.1-0.3c0.3-0.2,0.6-0.4,0.8-0.7v0.8h0.7
			v-4.5h-0.7V33.2z M263.1,35.9c-0.3,0.3-0.7,0.5-1.2,0.5c-0.5,0-0.9-0.2-1.2-0.5c-0.3-0.3-0.5-0.8-0.5-1.3c0-0.5,0.2-1,0.5-1.3
			c0.3-0.3,0.7-0.5,1.2-0.5c0.5,0,0.9,0.2,1.2,0.5c0.3,0.3,0.5,0.8,0.5,1.3C263.6,35.2,263.4,35.6,263.1,35.9z"/>
		<path class="st0" d="M269.2,33.1c-0.4-0.6-1-0.9-1.8-0.9c-0.7,0-1.2,0.2-1.7,0.7c-0.4,0.5-0.7,1-0.7,1.7c0,0.7,0.2,1.3,0.7,1.7
			c0.4,0.5,1,0.7,1.7,0.7c0.8,0,1.4-0.3,1.8-0.9v0.7c0,0.5-0.2,0.9-0.5,1.2s-0.7,0.4-1.2,0.5c-0.4,0-0.8-0.1-1.1-0.3
			c-0.3-0.2-0.5-0.5-0.6-0.8l-0.7,0.2c0,0.1,0.1,0.2,0.1,0.3c0.1,0.1,0.1,0.2,0.2,0.3c0.1,0.1,0.2,0.2,0.3,0.3
			c0.1,0.1,0.3,0.2,0.4,0.3c0.2,0.1,0.3,0.2,0.6,0.2c0.2,0.1,0.4,0.1,0.7,0.1c0.7,0,1.3-0.2,1.7-0.6c0.4-0.4,0.6-1,0.6-1.7v-4.5
			h-0.7V33.1z M268.8,35.9c-0.3,0.3-0.7,0.5-1.2,0.5c-0.5,0-0.9-0.2-1.2-0.5c-0.3-0.3-0.5-0.8-0.5-1.3c0-0.5,0.2-1,0.5-1.3
			c0.3-0.3,0.7-0.5,1.2-0.5c0.5,0,0.9,0.2,1.2,0.5c0.3,0.3,0.5,0.8,0.5,1.3C269.3,35.1,269.1,35.6,268.8,35.9z"/>
		<path class="st0" d="M273.1,32.2c-0.7,0-1.3,0.2-1.7,0.7c-0.5,0.5-0.7,1-0.7,1.7c0,0.7,0.2,1.3,0.7,1.8c0.5,0.5,1,0.7,1.7,0.7
			c0.3,0,0.6,0,0.9-0.1c0.3-0.1,0.5-0.2,0.7-0.4c0.2-0.2,0.3-0.3,0.4-0.4c0.1-0.1,0.2-0.3,0.2-0.4l-0.6-0.2c0,0.1-0.1,0.2-0.2,0.3
			c-0.1,0.1-0.2,0.2-0.3,0.3c-0.1,0.1-0.3,0.2-0.5,0.3c-0.2,0.1-0.4,0.1-0.7,0.1c-0.5,0-0.8-0.2-1.1-0.5c-0.3-0.3-0.5-0.7-0.5-1.1
			l4.1,0c0-0.1,0-0.2,0-0.3c0-0.7-0.2-1.3-0.7-1.7C274.4,32.4,273.8,32.2,273.1,32.2z M271.5,34.3c0.1-0.4,0.2-0.8,0.6-1
			c0.3-0.3,0.7-0.4,1.1-0.4c0.4,0,0.8,0.1,1.1,0.4c0.3,0.3,0.5,0.6,0.6,1.1L271.5,34.3z"/>
		<path class="st0" d="M278.8,32.2c-0.3,0-0.6,0.1-0.9,0.2c-0.3,0.1-0.5,0.3-0.7,0.6v-0.6h-0.7v4.5h0.7v-2.6c0-0.4,0.1-0.7,0.4-1
			c0.3-0.3,0.6-0.4,1-0.4c0.4,0,0.7,0.1,0.9,0.4c0.2,0.3,0.3,0.6,0.3,1v2.7h0.7v-2.7c0-0.6-0.2-1.1-0.5-1.4
			C279.8,32.4,279.4,32.2,278.8,32.2z"/>
		<path class="st0" d="M285.3,35.6c-0.1,0.1-0.2,0.3-0.3,0.4c-0.1,0.1-0.3,0.2-0.5,0.3c-0.2,0.1-0.4,0.1-0.7,0.1
			c-0.5,0-0.9-0.2-1.2-0.5c-0.3-0.3-0.5-0.8-0.5-1.3s0.2-1,0.5-1.3c0.3-0.4,0.7-0.5,1.2-0.5c0.4,0,0.7,0.1,1.1,0.3
			c0.3,0.2,0.5,0.5,0.5,0.8l0.7-0.2c-0.1-0.5-0.3-0.8-0.8-1.1c-0.4-0.3-0.9-0.4-1.5-0.4c-0.7,0-1.2,0.2-1.7,0.7
			c-0.4,0.5-0.7,1-0.7,1.8c0,0.7,0.2,1.3,0.7,1.8c0.4,0.5,1,0.7,1.7,0.7c0.4,0,0.7-0.1,1-0.2c0.3-0.1,0.5-0.3,0.7-0.4
			c0.2-0.2,0.3-0.3,0.4-0.5c0.1-0.2,0.2-0.3,0.2-0.5l-0.7-0.2C285.5,35.4,285.4,35.5,285.3,35.6z"/>
		<path class="st0" d="M288.8,36l-1.6-3.7h-0.8l2,4.5c-0.4,0.9-0.6,1.4-0.7,1.6l0.7,0c0-0.1,0.1-0.1,0.1-0.2c0-0.1,0.1-0.3,0.2-0.5
			c0.1-0.3,0.2-0.5,0.3-0.8l1.8-4.6h-0.7L288.8,36z"/>
		<path class="st0" d="M295.7,27.2c-0.1,0.1-0.2,0.1-0.4,0.1c-0.1,0-0.3,0-0.4,0c-0.3,0-0.5-0.1-0.7-0.4c-0.2-0.2-0.2-0.5-0.2-0.9
			l0-4.4h1.9v-0.9h-2.4c0.3-0.4,0.4-1.1,0.4-2.1h-1.1c0,0,0.2,2.1-1.2,2.1v0.9h1.2v4.7c0,0.6,0.2,1.1,0.5,1.5
			c0.4,0.4,0.8,0.5,1.5,0.5c0.7,0,1.2-0.2,1.7-0.5l-0.7-0.9C295.9,27,295.8,27.1,295.7,27.2z"/>
	</g>
</g>
</svg>
