<?xml version="1.0" encoding="utf-8"?>
<!-- Generator: Adobe Illustrator 28.0.0, SVG Export Plug-In . SVG Version: 6.00 Build 0)  -->
<svg version="1.1" id="Layer_1" xmlns="http://www.w3.org/2000/svg" xmlns:xlink="http://www.w3.org/1999/xlink" x="0px" y="0px"
	 viewBox="0 0 78.3 77.8" style="enable-background:new 0 0 78.3 77.8;" xml:space="preserve">
	 <style type="text/css">
		.st0{fill:#FFFFFF;}
		path{fill:#FFFFFF;}
	</style>
<g>
	<path d="M50.8,5.9c-0.2-0.6-0.1-1.2,0.2-2c0.2-0.5,0.4-0.9,0.8-1.2c0.3-0.3,0.6-0.5,1-0.5c0.4-0.1,0.8,0,1.2,0.2
		c0.4,0.1,0.7,0.3,0.9,0.6s0.4,0.5,0.4,0.8c0.1,0.3,0,0.6-0.1,0.9l0,0.1l-0.6-0.2l0-0.1c0.1-0.2,0.1-0.4,0.1-0.6
		c0-0.2-0.1-0.4-0.3-0.6S54,3,53.7,2.9c-0.5-0.2-0.9-0.2-1.3,0s-0.7,0.6-0.9,1.2c-0.2,0.6-0.3,1.1-0.2,1.5c0.1,0.4,0.4,0.7,0.9,0.9
		c0.3,0.1,0.5,0.1,0.7,0.1s0.4-0.1,0.6-0.2c0.2-0.1,0.3-0.3,0.4-0.5L54,6L53,5.5L53.2,5l2,0.8L55,6.3l-0.4-0.1l-0.1,0.1
		C54.4,6.6,54.2,6.8,54,7s-0.6,0.3-0.9,0.3c-0.3,0-0.7,0-1-0.2C51.4,6.9,51,6.4,50.8,5.9z"/>
	<path d="M58.9,10.7l-2.4-1.5l2.6-4.1l2.4,1.5L61.2,7l-1.9-1.2l-0.9,1.4l1.8,1.1l-0.3,0.5l-1.8-1.1L57.3,9l1.9,1.2L58.9,10.7z"/>
	<path d="M61.8,12.2c0-0.6,0.3-1.2,0.8-1.8c0.4-0.4,0.7-0.7,1.1-0.8c0.4-0.2,0.8-0.2,1.2-0.1c0.4,0.1,0.7,0.3,1.1,0.6
		c0.3,0.3,0.5,0.6,0.6,0.9s0.2,0.6,0.1,0.9c-0.1,0.3-0.2,0.6-0.4,0.8l-0.1,0.1l-0.4-0.4l0.1-0.1c0.2-0.2,0.3-0.4,0.3-0.6
		s0-0.4-0.1-0.6c-0.1-0.2-0.2-0.4-0.4-0.6c-0.4-0.3-0.8-0.5-1.2-0.4c-0.4,0.1-0.9,0.3-1.3,0.8c-0.4,0.5-0.7,0.9-0.7,1.4
		c0,0.4,0.1,0.8,0.5,1.2c0.2,0.2,0.4,0.3,0.6,0.4s0.4,0.1,0.6,0c0.2,0,0.4-0.1,0.5-0.3l0.1-0.1l-0.9-0.8l0.4-0.4l1.6,1.5l-0.4,0.4
		l-0.3-0.3L65.1,14c-0.2,0.2-0.5,0.4-0.8,0.5c-0.3,0.1-0.6,0.1-0.9-0.1c-0.3-0.1-0.6-0.3-0.9-0.6C62,13.3,61.7,12.8,61.8,12.2z"/>
	<path d="M65.9,17.3l3.9-2.9l0.9,1.2c0.3,0.4,0.5,0.8,0.4,1.2c0,0.4-0.2,0.7-0.6,0.9c-0.3,0.2-0.7,0.3-1,0.3s-0.6-0.3-0.9-0.6
		l-0.2,0.2c0.1,0.2,0.2,0.4,0.2,0.6c0,0.2-0.1,0.4-0.2,0.7l-0.6,1l-0.4-0.5l0.6-0.9c0.1-0.2,0.2-0.5,0.2-0.7c0-0.2-0.1-0.4-0.2-0.6
		l-0.3-0.5l-1.5,1.1L65.9,17.3z M68.8,17.2c0.2,0.2,0.4,0.4,0.6,0.4c0.2,0,0.5-0.1,0.8-0.3c0.2-0.2,0.4-0.4,0.4-0.6
		c0-0.2-0.1-0.5-0.2-0.7l-0.6-0.8l-1.6,1.2L68.8,17.2z"/>
	<path d="M69.3,22.4l-0.3-0.6l5.1-0.6l0.4,0.8l-3.6,3.6l-0.3-0.6l0.6-0.6l-1.1-2.2L69.3,22.4z M70.8,22.2l0.9,1.8l1.3-1.3
		c0.3-0.3,0.7-0.6,1-0.8l-0.1-0.2c-0.3,0.1-0.8,0.2-1.2,0.3L70.8,22.2z"/>
	<path d="M71.8,28.1l4.7-1.3l0.4,1.4c0.1,0.5,0.1,1-0.1,1.3c-0.2,0.4-0.5,0.6-1,0.7c-0.5,0.1-0.9,0.1-1.3-0.1s-0.6-0.6-0.7-1.1
		l-0.2-0.8L72,28.7L71.8,28.1z M74.4,28.9c0.1,0.3,0.3,0.6,0.5,0.7c0.2,0.1,0.5,0.1,0.8,0.1c0.3-0.1,0.5-0.2,0.7-0.5s0.1-0.5,0-0.8
		l-0.2-0.8l-2,0.6L74.4,28.9z"/>
	<path d="M73.2,34.4l-0.1-0.6l4.8-0.4l0.1,0.6l-2.3,0.2l0.2,2.5l2.3-0.2l0.1,0.6l-4.8,0.4l-0.1-0.6l2-0.2l-0.2-2.5L73.2,34.4z"/>
	<path d="M73.1,44.3l4.8,1l-0.3,1.4c-0.1,0.5-0.3,0.9-0.7,1.1c-0.3,0.2-0.7,0.3-1.2,0.2c-0.5-0.1-0.8-0.3-1.1-0.7
		c-0.2-0.4-0.3-0.8-0.2-1.3l0.2-0.9l-1.7-0.3L73.1,44.3z M75,46.2c-0.1,0.3,0,0.6,0.1,0.8c0.1,0.2,0.4,0.4,0.7,0.4
		c0.3,0.1,0.6,0,0.8-0.1c0.2-0.1,0.4-0.4,0.4-0.7l0.2-0.9l-2-0.4L75,46.2z"/>
	<path d="M71.6,50.1l4.5,1.8l-0.6,1.4c-0.2,0.5-0.5,0.8-0.8,1c-0.3,0.2-0.7,0.2-1.1,0c-0.4-0.2-0.6-0.4-0.8-0.7
		c-0.1-0.3-0.1-0.7,0-1.1l-0.3-0.1c-0.1,0.2-0.2,0.4-0.4,0.5c-0.2,0.1-0.4,0.2-0.7,0.2l-1.2,0l0.2-0.6l1.1,0c0.3,0,0.5-0.1,0.7-0.2
		s0.3-0.3,0.4-0.5l0.2-0.5l-1.7-0.7L71.6,50.1z M73.2,52.4c-0.1,0.3-0.1,0.5,0,0.7c0.1,0.2,0.3,0.4,0.6,0.5c0.3,0.1,0.5,0.1,0.7,0
		c0.2-0.1,0.4-0.3,0.5-0.6l0.3-0.9l-1.8-0.7L73.2,52.4z"/>
	<path d="M69,56.3c0.4-0.2,0.7-0.2,1.2-0.2c0.4,0,0.9,0.2,1.3,0.5c0.4,0.3,0.8,0.6,1,1c0.2,0.4,0.3,0.7,0.3,1.1s-0.1,0.8-0.4,1.2
		c-0.3,0.4-0.6,0.7-0.9,0.9c-0.4,0.2-0.7,0.2-1.2,0.2c-0.4,0-0.8-0.2-1.3-0.5c-0.4-0.3-0.8-0.6-1-1c-0.2-0.4-0.3-0.7-0.3-1.1
		c0-0.4,0.1-0.8,0.4-1.2S68.6,56.5,69,56.3z M68.2,58.3c0,0.3,0.1,0.6,0.3,0.9c0.2,0.3,0.4,0.5,0.8,0.7c0.3,0.2,0.7,0.3,1,0.4
		c0.3,0,0.6,0,0.9-0.1c0.3-0.1,0.5-0.3,0.7-0.6c0.2-0.3,0.3-0.6,0.3-0.9s-0.1-0.6-0.3-0.9c-0.2-0.3-0.4-0.5-0.8-0.7
		c-0.3-0.2-0.7-0.4-1-0.4c-0.3,0-0.6,0-0.9,0.1s-0.5,0.3-0.7,0.6S68.2,58,68.2,58.3z"/>
	<path d="M65.4,61.4c0.3,0,0.7,0.1,1,0.4l0.2,0.2l-0.4,0.4L66,62.3c-0.2-0.2-0.4-0.3-0.6-0.3s-0.4,0.1-0.5,0.2
		c-0.2,0.2-0.2,0.4-0.2,0.6c0,0.2,0.2,0.4,0.4,0.6l2.6,2.4l-0.4,0.4l-2.6-2.4c-0.3-0.3-0.5-0.6-0.5-1c0-0.3,0.1-0.7,0.4-1
		S65.1,61.4,65.4,61.4z"/>
	<path d="M59.2,66.7l2.2-1.7l3,3.8l-2.2,1.7l-0.3-0.4l1.7-1.4l-1-1.3l-1.6,1.3l-0.3-0.4l1.6-1.3l-1-1.2l-1.7,1.4L59.2,66.7z"/>
	<path d="M56.8,69c0.6,0.2,1,0.7,1.4,1.4c0.2,0.5,0.4,0.9,0.4,1.3c0,0.4-0.1,0.8-0.3,1.1c-0.2,0.3-0.5,0.6-0.9,0.8
		c-0.3,0.2-0.6,0.3-1,0.3c-0.3,0-0.6-0.1-0.9-0.2c-0.3-0.2-0.5-0.4-0.6-0.7l-0.1-0.1l0.5-0.3l0.1,0.1c0.1,0.2,0.2,0.3,0.4,0.5
		c0.2,0.1,0.4,0.2,0.6,0.2c0.2,0,0.4-0.1,0.7-0.2c0.4-0.2,0.7-0.6,0.8-1c0.1-0.4,0-0.9-0.3-1.5c-0.3-0.6-0.6-0.9-1.1-1.1
		c-0.4-0.2-0.8-0.2-1.3,0.1c-0.2,0.1-0.4,0.3-0.6,0.5c-0.1,0.2-0.2,0.4-0.3,0.6c0,0.2,0,0.4,0.1,0.6l0.1,0.1l-0.5,0.3L54,71.6
		c-0.2-0.3-0.2-0.6-0.2-0.9c0-0.3,0.2-0.6,0.4-0.9c0.2-0.3,0.5-0.5,0.8-0.7C55.6,68.8,56.2,68.8,56.8,69z"/>
	<path d="M49.2,71.7l0.6-0.2l1.3,4.1l1.5-0.5l0.2,0.5l-3.5,1.1L49,76.2l1.5-0.5L49.2,71.7z"/>
	<path d="M45.1,72.9c0.3,0.2,0.5,0.5,0.6,1l0.1,0.4l-0.6,0.1l0-0.4c0-0.3-0.2-0.5-0.4-0.6c-0.2-0.1-0.5-0.2-0.8-0.1
		c-0.3,0-0.6,0.1-0.7,0.3c-0.2,0.2-0.2,0.4-0.2,0.6c0,0.2,0.1,0.3,0.2,0.4c0.1,0.1,0.3,0.2,0.5,0.3l1,0.2c0.3,0.1,0.6,0.2,0.8,0.4
		c0.2,0.2,0.3,0.5,0.4,0.7c0.1,0.4,0,0.7-0.3,1c-0.2,0.3-0.6,0.4-1.1,0.5c-0.5,0.1-0.9,0-1.2-0.2s-0.5-0.5-0.6-1l-0.1-0.4l0.6-0.1
		l0,0.4c0,0.3,0.2,0.5,0.3,0.6c0.2,0.1,0.4,0.2,0.7,0.1c0.3,0,0.5-0.1,0.7-0.3c0.1-0.2,0.2-0.3,0.2-0.6c0-0.2-0.1-0.3-0.2-0.4
		c-0.1-0.1-0.3-0.2-0.6-0.3l-0.9-0.2c-0.3-0.1-0.6-0.2-0.8-0.4c-0.2-0.2-0.3-0.4-0.4-0.7c-0.1-0.4,0-0.8,0.3-1
		c0.3-0.3,0.6-0.4,1.2-0.5C44.4,72.7,44.8,72.7,45.1,72.9z"/>
	<path d="M35.8,73c0.1,0.1,0.1,0.2,0.1,0.3c0,0.1-0.1,0.2-0.2,0.3c-0.1,0.1-0.2,0.1-0.3,0.1c-0.1,0-0.2-0.1-0.3-0.2
		c-0.1-0.1-0.1-0.2-0.1-0.3c0-0.1,0.1-0.2,0.2-0.3c0.1-0.1,0.2-0.1,0.3-0.1C35.6,72.9,35.7,72.9,35.8,73z"/>
	<path d="M28.2,72c0.2,0.6,0.2,1.2-0.1,2c-0.2,0.5-0.4,0.9-0.7,1.2c-0.3,0.3-0.6,0.5-1,0.5c-0.4,0.1-0.8,0-1.2-0.1
		c-0.4-0.1-0.7-0.3-0.9-0.6c-0.2-0.2-0.4-0.5-0.4-0.8c-0.1-0.3,0-0.6,0.1-0.9l0-0.1l0.6,0.2l0,0.1c-0.1,0.2-0.1,0.4-0.1,0.6
		c0,0.2,0.1,0.4,0.3,0.6c0.2,0.2,0.4,0.3,0.6,0.4c0.5,0.2,0.9,0.2,1.3-0.1c0.4-0.2,0.7-0.6,0.9-1.2c0.2-0.6,0.3-1.1,0.1-1.5
		c-0.1-0.4-0.4-0.7-0.9-0.9c-0.3-0.1-0.5-0.1-0.7-0.1s-0.4,0.1-0.6,0.2c-0.2,0.1-0.3,0.3-0.4,0.5l0,0.1l1.1,0.4l-0.2,0.5l-2-0.8
		l0.2-0.5l0.4,0.1l0-0.1c0.1-0.3,0.3-0.5,0.6-0.7s0.5-0.3,0.9-0.3c0.3,0,0.7,0,1.1,0.2C27.6,71.1,28,71.5,28.2,72z"/>
	<path d="M20,67.4l2.4,1.5L19.9,73l-2.4-1.5l0.3-0.5l1.9,1.1l0.9-1.4l-1.8-1.1l0.3-0.5l1.8,1.1l0.8-1.4l-1.9-1.1L20,67.4z"/>
	<path d="M17.1,65.9c0,0.6-0.3,1.2-0.8,1.8c-0.4,0.4-0.7,0.7-1.1,0.8c-0.4,0.2-0.8,0.2-1.1,0.1c-0.4-0.1-0.7-0.3-1.1-0.6
		c-0.3-0.3-0.5-0.5-0.6-0.9s-0.2-0.6-0.1-0.9c0-0.3,0.2-0.6,0.4-0.8l0.1-0.1l0.5,0.4l-0.1,0.1c-0.2,0.2-0.2,0.4-0.3,0.6
		c0,0.2,0,0.4,0.1,0.6c0.1,0.2,0.2,0.4,0.4,0.6c0.4,0.3,0.8,0.5,1.2,0.4c0.4-0.1,0.9-0.3,1.3-0.8c0.4-0.5,0.6-0.9,0.7-1.4
		c0-0.4-0.1-0.8-0.5-1.2c-0.2-0.2-0.4-0.3-0.6-0.4c-0.2-0.1-0.4-0.1-0.6,0c-0.2,0-0.4,0.2-0.5,0.3L14,64.7l0.9,0.8l-0.4,0.4
		l-1.6-1.4l0.4-0.4l0.3,0.3l0.1-0.1c0.2-0.2,0.5-0.4,0.8-0.5c0.3-0.1,0.6-0.1,0.9,0s0.6,0.3,0.9,0.5C16.8,64.8,17.1,65.3,17.1,65.9z
		"/>
	<path d="M12.8,60.9l-3.9,3L8,62.6c-0.3-0.4-0.5-0.8-0.5-1.2c0-0.4,0.2-0.7,0.5-1c0.3-0.3,0.7-0.4,1-0.3c0.3,0,0.6,0.2,0.9,0.6
		l0.2-0.2C10.1,60.4,10,60.2,10,60c0-0.2,0.1-0.4,0.2-0.7l0.6-1l0.4,0.5l-0.6,0.9c-0.1,0.2-0.2,0.5-0.2,0.7s0.1,0.4,0.2,0.6l0.3,0.5
		l1.4-1.1L12.8,60.9z M10,61c-0.2-0.2-0.4-0.4-0.6-0.4c-0.2,0-0.5,0.1-0.8,0.3c-0.2,0.2-0.4,0.4-0.4,0.6c0,0.2,0.1,0.5,0.3,0.7L9,63
		l1.6-1.2L10,61z"/>
	<path d="M9.3,55.9l0.3,0.6l-5.1,0.7l-0.4-0.8l3.6-3.7l0.3,0.6l-0.6,0.7L8.4,56L9.3,55.9z M7.8,56.1l-0.9-1.8l-1.2,1.3
		c-0.3,0.3-0.7,0.6-0.9,0.8l0.1,0.2c0.3-0.1,0.7-0.2,1.2-0.3L7.8,56.1z"/>
	<path d="M6.7,50.2l-4.6,1.4l-0.4-1.4c-0.2-0.5-0.1-1,0-1.3s0.5-0.6,1-0.8C3.1,48,3.6,48,3.9,48.2c0.4,0.2,0.6,0.6,0.8,1.1l0.3,0.8
		l1.6-0.5L6.7,50.2z M4.2,49.5c-0.1-0.3-0.3-0.5-0.5-0.7s-0.5-0.1-0.8,0c-0.3,0.1-0.5,0.3-0.6,0.5s-0.1,0.5,0,0.8l0.3,0.8l2-0.6
		L4.2,49.5z"/>
	<path d="M5.2,43.9l0.1,0.6l-4.8,0.5l-0.1-0.6l2.3-0.3l-0.3-2.5L0.1,42L0,41.4l4.8-0.5l0.1,0.6l-2,0.2l0.3,2.5L5.2,43.9z"/>
	<path d="M5.1,34.1l-4.8-0.9l0.3-1.5c0.1-0.5,0.3-0.9,0.6-1.2c0.3-0.2,0.7-0.3,1.2-0.2c0.5,0.1,0.9,0.3,1.1,0.7s0.3,0.8,0.2,1.3
		l-0.2,0.9l1.7,0.3L5.1,34.1z M3.2,32.2c0.1-0.3,0-0.6-0.1-0.8C2.9,31.2,2.7,31,2.3,31c-0.3-0.1-0.6,0-0.8,0.1s-0.3,0.4-0.4,0.7
		L1,32.7l2,0.4L3.2,32.2z"/>
	<path d="M6.4,28.3l-4.6-1.7l0.5-1.5c0.2-0.5,0.4-0.8,0.8-1c0.3-0.2,0.7-0.2,1.1,0c0.4,0.1,0.7,0.4,0.8,0.7c0.1,0.3,0.1,0.7,0,1.1
		l0.3,0.1c0.1-0.2,0.2-0.4,0.4-0.5c0.2-0.1,0.4-0.2,0.7-0.2l1.2,0l-0.2,0.6l-1.1,0c-0.3,0-0.5,0.1-0.7,0.2s-0.3,0.3-0.4,0.5L5,27.1
		l1.7,0.6L6.4,28.3z M4.8,26c0.1-0.3,0.1-0.5,0-0.7s-0.3-0.4-0.6-0.5c-0.3-0.1-0.5-0.1-0.7,0C3.2,24.8,3,25,2.9,25.3l-0.3,0.9
		l1.8,0.7L4.8,26z"/>
	<path d="M9,22c-0.4,0.2-0.7,0.3-1.2,0.2c-0.4,0-0.9-0.2-1.3-0.5c-0.4-0.3-0.8-0.6-1-0.9s-0.3-0.7-0.3-1.1c0-0.4,0.1-0.8,0.4-1.2
		c0.2-0.4,0.5-0.7,0.9-0.9s0.7-0.3,1.2-0.2c0.4,0,0.9,0.2,1.3,0.5c0.4,0.3,0.8,0.6,1,0.9s0.3,0.7,0.3,1.1c0,0.4-0.1,0.8-0.4,1.2
		C9.6,21.5,9.3,21.8,9,22z M9.7,19.9c0-0.3-0.1-0.6-0.3-0.9c-0.2-0.3-0.5-0.5-0.8-0.7c-0.3-0.2-0.7-0.3-1-0.4c-0.3,0-0.6,0-0.9,0.1
		c-0.3,0.1-0.5,0.3-0.7,0.6s-0.3,0.6-0.2,0.9c0,0.3,0.1,0.6,0.3,0.9s0.5,0.5,0.8,0.7c0.3,0.2,0.7,0.3,1,0.4c0.3,0,0.6,0,0.9-0.1
		s0.5-0.3,0.7-0.6C9.6,20.5,9.7,20.2,9.7,19.9z"/>
	<path d="M12.4,16.8c-0.3,0-0.7-0.1-1-0.4l-0.2-0.2l0.4-0.5l0.2,0.1c0.2,0.2,0.4,0.3,0.6,0.3c0.2,0,0.4-0.1,0.5-0.2
		c0.2-0.2,0.2-0.4,0.2-0.6c0-0.2-0.2-0.4-0.4-0.6l-2.6-2.3l0.4-0.5l2.7,2.4c0.3,0.3,0.5,0.6,0.5,0.9c0,0.3-0.1,0.7-0.4,1
		C13.1,16.7,12.8,16.8,12.4,16.8z"/>
	<path d="M18.5,11.3l-2.2,1.8l-3.1-3.8l2.2-1.8L15.8,8l-1.7,1.4l1,1.3l1.6-1.3l0.3,0.4l-1.6,1.3l1,1.2l1.7-1.4L18.5,11.3z"/>
	<path d="M20.9,9.1c-0.6-0.2-1-0.7-1.4-1.4c-0.3-0.5-0.4-0.9-0.4-1.3c0-0.4,0.1-0.8,0.2-1.1c0.2-0.3,0.5-0.6,0.9-0.8
		c0.3-0.2,0.6-0.3,1-0.3c0.3,0,0.6,0.1,0.9,0.2c0.3,0.1,0.5,0.4,0.6,0.7l0.1,0.1l-0.5,0.3l-0.1-0.1c-0.1-0.2-0.3-0.3-0.4-0.4
		c-0.2-0.1-0.4-0.1-0.6-0.1c-0.2,0-0.4,0.1-0.7,0.2c-0.4,0.2-0.7,0.6-0.8,1c-0.1,0.4,0,0.9,0.3,1.5c0.3,0.6,0.7,0.9,1.1,1.1
		s0.8,0.1,1.3-0.1c0.2-0.1,0.4-0.3,0.6-0.5c0.1-0.2,0.2-0.4,0.2-0.6c0-0.2,0-0.4-0.1-0.6L23,6.6l0.5-0.3l0.1,0.1
		c0.2,0.3,0.2,0.6,0.2,0.9c0,0.3-0.1,0.6-0.3,0.9S23,8.7,22.6,8.8C22,9.2,21.4,9.3,20.9,9.1z"/>
	<path d="M28.4,6.2l-0.6,0.2l-1.4-4.1L25,2.8l-0.2-0.5l3.5-1.2l0.2,0.5L27,2.1L28.4,6.2z"/>
	<path d="M32.4,4.9c-0.3-0.2-0.5-0.5-0.6-0.9l-0.1-0.4l0.6-0.1l0.1,0.3c0,0.3,0.2,0.5,0.4,0.6c0.2,0.1,0.5,0.2,0.8,0.1
		c0.3-0.1,0.6-0.2,0.7-0.3s0.2-0.4,0.2-0.6c0-0.2-0.1-0.3-0.2-0.4C34.1,3,33.9,3,33.7,2.9l-1-0.2c-0.3-0.1-0.6-0.2-0.8-0.4
		c-0.2-0.2-0.3-0.4-0.4-0.7c-0.1-0.4,0-0.7,0.3-1C32,0.3,32.4,0.1,32.9,0c0.5-0.1,0.9,0,1.2,0.2c0.3,0.2,0.5,0.5,0.6,0.9l0.1,0.4
		l-0.6,0.1l-0.1-0.3c0-0.3-0.2-0.5-0.4-0.6c-0.2-0.1-0.4-0.2-0.8-0.1c-0.3,0.1-0.5,0.2-0.7,0.3c-0.1,0.2-0.2,0.3-0.2,0.6
		c0,0.2,0.1,0.3,0.3,0.4C32.6,2,32.8,2.1,33,2.1l0.9,0.2c0.3,0.1,0.6,0.2,0.8,0.4c0.2,0.2,0.3,0.4,0.4,0.7c0.1,0.4,0,0.8-0.3,1
		C34.6,4.8,34.2,5,33.7,5C33.2,5.1,32.8,5.1,32.4,4.9z"/>
	<path d="M41.8,4.6c-0.1-0.1-0.1-0.2-0.1-0.3c0-0.1,0.1-0.2,0.1-0.3s0.2-0.1,0.3-0.1c0.1,0,0.2,0.1,0.3,0.1s0.1,0.2,0.1,0.3
		c0,0.1-0.1,0.2-0.1,0.3c-0.1,0.1-0.2,0.1-0.3,0.1C41.9,4.7,41.8,4.7,41.8,4.6z"/>
</g>
</svg>
