<?xml version="1.0" encoding="utf-8"?>
<!-- Generator: Adobe Illustrator 28.0.0, SVG Export Plug-In . SVG Version: 6.00 Build 0)  -->
<svg version="1.1" id="Layer_1" xmlns="http://www.w3.org/2000/svg" xmlns:xlink="http://www.w3.org/1999/xlink" x="0px" y="0px"
	 viewBox="0 0 76.8 72.8" style="enable-background:new 0 0 76.8 72.8;" xml:space="preserve">
	 <style type="text/css">
		.st0{fill:#FFFFFF;}
		path{fill:#FFFFFF;}
	</style>
<g>
	<path d="M52,4.9c2.3,1,2.9,0.9,3.6-0.6c0.5-1.1,0.3-2-0.4-2.3c-0.7-0.3-1.4,0.1-1.8,0.9c-0.3,0.6,0,1.2,0.6,1.5
		c0.4,0.2,0.7,0.1,1-0.1l0,0L55,4.4c-0.3,0.7-0.7,0.7-2.1,0.1l-1-0.4c-1-0.5-1.4-0.9-1.2-1.4c0.1-0.3,0.3-0.5,0.7-0.8l-0.3-0.3
		c-0.4,0.3-0.6,0.7-0.8,1C49.8,3.5,50.2,4.1,52,4.9z M54.4,3.8l-0.1-0.1c-0.4-0.2-0.6-0.4-0.4-0.8c0.2-0.4,0.6-0.6,1-0.5
		c0.5,0.2,0.6,0.7,0.3,1.4C55,4,54.8,4,54.4,3.8z"/>
	<path d="M55.5,1.2L55.5,1.2c0.2,0.1,0.4,0.1,0.5-0.2c0.1-0.2,0-0.4-0.1-0.4l-0.1,0c-0.2-0.1-0.3,0-0.4,0.2
		C55.2,1,55.3,1.1,55.5,1.2z"/>
	<rect x="54.3" y="4.1" transform="matrix(0.4992 -0.8665 0.8665 0.4992 24.7043 51.4784)" width="5.1" height="0.5"/>
	<path d="M58.5,6L58,5.8l-0.3,0.7c-0.1,0.2-0.2,0.5-0.4,0.7c-0.4,0.6-0.9,1-1.8,0.5l-0.2-0.1L55,8.1l0.2,0.1c1,0.7,1.8,0.3,2.3-0.5
		L57.9,8l0,0l0.6,0.4l0,0l0.6,0.4l0,0l0.6,0.4l0,0l0.5,0.4l0,0l0.5,0.5l0,0l0.5,0.5l0,0l0.5,0.5l0,0l0.5,0.5l0,0l0.5,0.5h0l0.5,0.5
		l0,0l0.5,0.5l0,0l0.5,0.5l0.1,0l0.1,0.2c0.5,0.7,0.9,1.1,2.1,1.6l0.6,0.2c-0.6,0.5-0.6,0.9-0.2,1.5l-0.1,0l0.4,0.6l0,0l0.4,0.6l0,0
		l0.4,0.6l0,0l0.3,0.6l0,0l0.3,0.6l0,0l0.3,0.6l0,0l0.3,0.7l0,0l0.3,0.7l0,0l0.3,0.6l0,0l0.3,0.7l0,0c0.2,0.5,0.5,0.7,0.9,0.6l0,0
		c-0.4,0.3-0.5,0.7-0.3,1.2l0,0l0.2,0.7l0,0l0.2,0.7l0,0l0.2,0.7l0,0l0.2,0.7l0,0l0.2,0.7l0,0l0.1,0.7l0,0l0.1,0.7l0,0l0.1,0.7l0,0
		l0.1,0.7l0,0l0.1,0.7l0.1,0.1l0,0.2c0,0.8,0.1,1.4,0.8,2.5l0.6,0.9l0,0.5l0.6,0l0-0.1c0-0.2,0-0.6,0.1-1.1l0.4-1.7
		c0.1-0.3,0.1-0.4,0.1-0.5c0-0.3-0.2-0.6-0.6-0.6l-0.5,0l0,0.5l0.6,0l-0.3,1.5l-0.2,1l0,0L74,35.2c-0.5-1-0.6-1.5-0.7-2.3l0-0.2
		l-0.1-0.1L73.1,32l0,0L73,31.2l0,0l-0.1-0.7l0,0l-0.1-0.7l0,0l-0.1-0.7l0,0l-0.2-0.7l0,0l0,0l-0.2-0.7l0,0l0,0l0,0l0,0L72.1,27l0,0
		l0,0l-0.2-0.7l0,0l-0.2-0.7l0,0l-0.1-0.2c-0.1-0.4,0-0.6,0.4-0.8l1-0.4l-0.2-0.5l-1,0.4c-0.4,0.1-0.6,0-0.8-0.4L71,23.5l0,0
		l-0.3-0.6l0,0l0,0l-0.3-0.7l0,0l-0.3-0.7l0,0l-0.3-0.7l0,0l-0.3-0.7l0,0l-0.3-0.6l0,0L68.8,19l0,0l-0.4-0.6l0,0L68,17.7l0,0
		l-0.4-0.6l0.1,0l-0.1-0.2c-0.3-0.3-0.2-0.6,0.1-0.9l0.1-0.1l0.3,0.4l0.5-0.4l-0.1-0.1c-0.2-0.2-0.3-0.5-0.5-1l-0.7-1.6
		c-0.1-0.3-0.2-0.4-0.2-0.5c-0.2-0.3-0.5-0.3-0.8-0.1l-0.4,0.3l0.3,0.4l0.5-0.4l0.6,1.4l0.4,1l0,0l-0.6-0.3c-1-0.5-1.4-0.9-1.9-1.5
		l-0.1-0.2l-0.1,0L64.4,13l0,0l-0.5-0.5l0,0l-0.5-0.5h0l-0.5-0.5l0,0l-0.5-0.5l0,0l-0.5-0.5l0,0l-0.6-0.5l0,0l-0.6-0.5l0,0L60.2,9
		l0,0l-0.6-0.5l0,0L59,8.1l0,0l-0.6-0.4l0,0l-0.6-0.4c0.1-0.2,0.3-0.5,0.4-0.8L58.5,6z"/>
	<path d="M64.7,15.8c-0.2,0.1-0.2,0.3-0.1,0.4l0,0.1c0.1,0.1,0.3,0.2,0.5,0c0.2-0.1,0.2-0.3,0.1-0.4l0-0.1
		C65,15.7,64.9,15.7,64.7,15.8z"/>
	<path d="M69.7,25.7c0.1,0.2,0.2,0.3,0.4,0.2c0.2-0.1,0.3-0.2,0.2-0.4l0-0.1c-0.1-0.2-0.2-0.3-0.4-0.2
		C69.6,25.3,69.6,25.4,69.7,25.7L69.7,25.7z"/>
	<path d="M70,24.6L70,24.6c-0.1-0.2-0.2-0.3-0.4-0.2c-0.2,0.1-0.3,0.2-0.2,0.4l0,0.1c0.1,0.2,0.2,0.3,0.4,0.2S70.1,24.8,70,24.6z"/>
	<path d="M71.7,34.5c-0.2,0-0.3,0.1-0.3,0.3l0,0.1c0,0.2,0.1,0.3,0.4,0.3s0.3-0.1,0.3-0.3l0-0.1C72.1,34.6,72,34.5,71.7,34.5z"/>
	<path d="M75.2,42.5c0.2,0,0.4-0.1,0.4-0.3l0-0.1c0-0.2-0.1-0.3-0.3-0.4c-0.2,0-0.4,0.1-0.4,0.3l0,0.1C74.9,42.4,75,42.5,75.2,42.5z
		"/>
	<path d="M73.1,41c0.2-1.1,0.5-1.6,1.1-1.5c0.3,0,0.6,0.2,1,0.4l0.2-0.4c-0.4-0.3-0.8-0.4-1.2-0.5c-1-0.2-1.5,0.5-1.8,2.4
		c-0.3,1.9,0,2.6,0.9,2.8c0.2,0,0.4,0,0.8,0l0.6,0l0-0.5l-0.6,0c-0.4,0-0.6,0-0.8,0c-0.5-0.1-0.6-0.4-0.4-1.7L73.1,41z"/>
	<path d="M75.1,41.2L75.1,41.2c0,0.3,0,0.4,0.3,0.4c0.2,0,0.4-0.1,0.4-0.3l0-0.1c0-0.2-0.1-0.3-0.3-0.4C75.2,40.9,75.1,41,75.1,41.2
		z"/>
	<path d="M72.9,44.9c-0.8-0.2-1.1,0-1.3,0.9l0,0l-0.2,0.7l0,0l-0.2,0.7l0,0l-0.2,0.7l0,0l-0.2,0.7l0,0l-0.3,0.7l0,0l-0.3,0.7l0,0
		l-0.3,0.6l0,0l-0.3,0.7l0,0l-0.3,0.6l0,0l-0.3,0.6l0,0l-0.3,0.6l0,0l-0.3,0.6l0,0.1c-0.5,0.8-0.7,1.3-1,2.1l-0.3,0.9l0.5,0.2
		l0.2-0.5c0.1-0.2,0.2-0.4,0.3-0.6c0.3-0.5,0.9-0.7,1.4-0.4c0.4,0.3,0.5,0.7,0.2,1.1c-0.2,0.3-0.4,0.4-0.8,0.5l0.1,0.5
		c0.5,0,0.9-0.2,1.2-0.6c0.4-0.6,0.2-1.4-0.4-1.9c-0.4-0.3-0.9-0.3-1.3-0.1l0,0l0.5-0.7l0-0.1l0.3-0.6l0,0l0.4-0.7l0,0l0.3-0.7l0,0
		l0.3-0.7l0,0l0.3-0.6l0,0l0.3-0.7l0,0l0.3-0.7l0,0l0,0l0.3-0.7l0,0l0.3-0.7l0,0l0,0l0,0l0,0l0.2-0.7l0,0l0,0l0.2-0.7l0,0l0.2-0.7
		l0,0l0.1-0.2c0.1-0.4,0.3-0.5,0.6-0.5l3.9,1l0.1-0.5L72.9,44.9z"/>
	<path d="M67.1,57.4c-0.6-0.4-1.1-0.4-1.6,0.2c-0.3,0.3-0.3,0.7-0.1,1l0,0l-0.1-0.1c-0.7-0.5-0.8-1.3-0.1-2.2l0.3-0.4l-0.5-0.4
		L64.6,56c-0.9,1.1-0.6,2.2,0.5,3.1c1,0.8,1.8,0.8,2.3,0.2C67.9,58.7,67.7,57.9,67.1,57.4z M67,58.9c-0.3,0.4-0.9,0.4-1.5-0.1
		c0-0.2,0.1-0.4,0.3-0.7l0.1-0.1c0.3-0.4,0.6-0.4,0.9-0.2C67.2,58.1,67.3,58.5,67,58.9z"/>
	<path d="M63.9,59.8c-0.5-0.5-0.8-1.1-0.1-1.8l0.2-0.2l-0.4-0.4l-0.2,0.2c-0.8,0.9-0.6,1.7,0.1,2.4l-0.3,0.3l0,0l-0.5,0.5v0L62,61.3
		l0,0l-0.5,0.5l0,0L61,62.3l0,0l-0.5,0.4l0,0l-0.6,0.5l0,0l-0.6,0.4l0,0l-0.6,0.4l0,0l-0.6,0.4l0,0l-0.6,0.4l0,0.2
		c-0.3,0.2-0.5,0.4-0.6,0.8l-0.3,0c-0.4,0-0.7,0-1,0.2c-0.4,0.2-0.5,0.6-0.4,1l0,0c-0.3-0.4-0.7-0.4-1.1-0.2
		c-0.4,0.2-0.5,0.5-0.3,0.9l0,0c-0.3-0.3-0.7-0.3-1.1-0.1l0-0.1l-0.7,0.3l0,0l-0.7,0.3l0,0l-0.7,0.3l0,0L50,68.7l0,0l-0.7,0.2l0,0
		l-0.7,0.2l0,0L48,69.3l0,0l-0.7,0.2l0,0l-0.7,0.2l0,0l-0.7,0.2l0,0.1c-0.4,0.1-0.6,0.2-0.7,0.5l-1.9-0.2l-0.3,0.7l0.1,0.3
		c0.2,1.1,0.7,1.7,1.4,1.6c0.6-0.1,0.9-0.5,1-1l0.1-0.5c0.1-0.5,0.2-0.7,0.5-0.7l0,0l0.7-0.1l0,0l0.7-0.2l0,0l0,0L48,70l0,0l0.7-0.2
		l0,0l0.7-0.2l0,0l0.7-0.2l0,0l0.7-0.3l0,0l0,0l0.7-0.3l0,0l0.7-0.3l0.6-0.3l0.1,0.1l0.2-0.1c0.4-0.2,0.6-0.1,0.8,0.2l0.4,0.7
		l0.4-0.2l-0.4-0.7c-0.2-0.4-0.2-0.6,0.1-0.8l0.1-0.1c0.3-0.2,0.5-0.1,0.7,0.4l0.3,0.5l0.4-0.2l-0.3-0.5c-0.2-0.4-0.1-0.7,0.2-0.9
		c0.2-0.1,0.5-0.2,0.9-0.2l0.1,0l0,0.8l0.4,0l0-0.7c0-0.5,0.1-0.7,0.4-0.8l0.2-0.1l0.1-0.2l0.5-0.3l0,0l0.6-0.4l0,0l0.6-0.4l0,0
		l0.6-0.4l0,0l0.6-0.5l0,0l0.6-0.5l0,0l0.5-0.5l0,0l0.5-0.5l0,0l0,0l0,0v0l0.5-0.5v0l0.5-0.5l0,0l0.4-0.5c0.2,0.2,0.4,0.3,0.7,0.5
		l0.4,0.3l0.3-0.4l-0.7-0.4C64.4,60.2,64.1,60,63.9,59.8z M44.9,71.6c-0.1,0.3-0.2,0.6-0.5,0.7c-0.4,0.1-0.7-0.3-0.9-1l0-0.3L45,71
		L44.9,71.6z"/>
	<path d="M55.7,69L55.7,69c-0.2,0.1-0.3,0.3-0.2,0.5c0.1,0.2,0.3,0.2,0.4,0.2l0.1,0c0.2-0.1,0.2-0.2,0.1-0.4
		C56,68.9,55.9,68.9,55.7,69z"/>
	<path d="M56.5,69.5L56.5,69.5c-0.2,0.1-0.3,0.3-0.2,0.5s0.3,0.2,0.4,0.1l0.1,0c0.2-0.1,0.2-0.2,0.1-0.4S56.7,69.4,56.5,69.5z"/>
	<path d="M56.5,68.6L56.5,68.6c-0.2,0.1-0.3,0.3-0.2,0.5c0.1,0.2,0.3,0.2,0.4,0.1l0.1,0c0.2-0.1,0.2-0.2,0.1-0.4
		C56.8,68.5,56.7,68.5,56.5,68.6z"/>
	<path d="M35.4,70.5c-0.3,0-0.4,0.1-0.5,0.4l0,0.1c0,0.2,0.1,0.4,0.4,0.4c0.3,0,0.4-0.1,0.5-0.4l0-0.1
		C35.8,70.7,35.7,70.5,35.4,70.5z"/>
	<path d="M22.3,71.9L22.3,71.9c-0.2-0.1-0.4,0-0.5,0.2c-0.1,0.2,0,0.4,0.2,0.4l0.1,0c0.2,0.1,0.3,0,0.4-0.2
		C22.5,72.1,22.4,71.9,22.3,71.9z"/>
	<path d="M25.7,68.1c-2.3-0.9-3-0.8-3.6,0.7c-0.5,1.1-0.3,2,0.4,2.3c0.7,0.3,1.4-0.1,1.7-0.9c0.3-0.6,0-1.2-0.7-1.5
		c-0.4-0.2-0.7-0.1-1,0.1l0,0l0.1-0.2c0.3-0.7,0.7-0.7,2.1-0.1l1,0.4c1.1,0.4,1.5,0.9,1.2,1.4c-0.1,0.3-0.3,0.5-0.6,0.8l0.3,0.3
		c0.4-0.4,0.6-0.7,0.7-1C27.9,69.5,27.5,68.9,25.7,68.1z M23.3,69.2l0.1,0.1c0.4,0.2,0.6,0.4,0.4,0.8c-0.2,0.5-0.6,0.7-1,0.5
		c-0.5-0.2-0.6-0.7-0.3-1.4C22.7,69.1,22.9,69.1,23.3,69.2z"/>
	<rect x="18.2" y="68.5" transform="matrix(0.4811 -0.8767 0.8767 0.4811 -49.4676 53.886)" width="5.1" height="0.5"/>
	<path d="M19.2,67.1l0.5,0.2l0.3-0.7c0.1-0.2,0.2-0.5,0.4-0.8c0.4-0.6,0.9-1,1.8-0.5l0.2,0.1l0.3-0.5l-0.2-0.1
		c-1-0.6-1.8-0.2-2.3,0.5l-0.4-0.2l0,0L19,64.6l0,0l-0.6-0.4l0,0l-0.6-0.4l0,0l-0.6-0.4l0,0l-0.6-0.5l0,0l-0.5-0.5l0,0L15.7,62l0,0
		l-0.5-0.5l0,0L14.6,61l0,0l-0.5-0.5h0L13.6,60l0,0l-0.5-0.5l-0.1,0l-0.1-0.2c-0.5-0.6-0.9-1.1-2.2-1.5l-0.6-0.2
		c0.6-0.5,0.6-0.9,0.2-1.5l0.1,0l-0.4-0.6l0,0l-0.4-0.6l0,0l-0.4-0.6l0,0l-0.4-0.6l0,0l-0.4-0.6l0,0l-0.3-0.6l0,0l-0.3-0.6l0,0
		L7.5,51l0,0l-0.3-0.6l0,0l-0.3-0.7l0,0c-0.2-0.5-0.5-0.7-1-0.6l0,0c0.4-0.3,0.5-0.7,0.2-1.2l0,0l-0.2-0.7l0,0l-0.2-0.7l0,0
		l-0.2-0.7l0,0L5.3,45l0,0l-0.2-0.7l0,0l-0.2-0.7l0,0l-0.1-0.7l0,0l-0.1-0.7l0,0l-0.1-0.7l0,0l-0.1-0.7l-0.1-0.1l0-0.2
		c-0.1-0.8-0.1-1.4-0.9-2.5l-0.6-0.9l0-0.5l-0.6,0l0,0.1c0,0.2,0,0.6-0.1,1.1l-0.3,1.7c-0.1,0.3-0.1,0.4-0.1,0.5
		c0,0.3,0.2,0.6,0.6,0.5l0.5,0l0-0.5l-0.6,0l0.3-1.5l0.2-1l0,0l0.3,0.6c0.5,1,0.7,1.5,0.7,2.3l0,0.2l0.1,0.1l0.1,0.6l0,0l0,0
		l0.1,0.7l0,0l0.1,0.7l0,0l0.1,0.7l0,0l0.2,0.7l0,0l0.2,0.7l0,0l0.2,0.7l0,0l0.2,0.7l0,0l0.2,0.7l0,0l0,0l0.2,0.7l0,0l0.1,0.2
		c0.1,0.4,0,0.6-0.3,0.8l-1,0.4l0.2,0.5l1-0.4c0.4-0.1,0.6,0,0.8,0.3l0.1,0.2l0,0l0.3,0.6l0,0l0,0l0.3,0.7l0,0l0.3,0.7l0,0l0.3,0.7
		h0l0.3,0.6l0,0l0,0l0,0l0,0l0.3,0.6l0,0l0.4,0.6l0,0L9,55l0,0l0.4,0.6l0,0l0.4,0.6l-0.1,0l0.2,0.2c0.3,0.3,0.3,0.6-0.1,0.9
		l-0.1,0.1l-0.3-0.4l-0.5,0.4l0.1,0.1c0.2,0.2,0.3,0.5,0.5,1l0.7,1.6c0.1,0.3,0.2,0.4,0.3,0.5c0.2,0.3,0.5,0.3,0.8,0.1l0.4-0.3
		l-0.3-0.4l-0.5,0.4l-0.6-1.3l-0.5-0.9l0,0l0.6,0.3c1,0.5,1.4,0.9,1.9,1.5l0.1,0.2l0.1,0l0.4,0.5l0,0l0.5,0.5h0l0.5,0.5l0,0l0.5,0.5
		l0,0l0.5,0.5l0,0l0.6,0.5l0,0l0.6,0.5l0,0l0.6,0.5l0,0l0.6,0.4l0,0l0.6,0.4l0,0l0.6,0.4l0,0l0.6,0.4l0,0l0.6,0.3
		c-0.1,0.2-0.3,0.5-0.4,0.8L19.2,67.1z"/>
	<path d="M12.2,57.3L12.2,57.3c0.2,0.2,0.3,0.2,0.5,0.1c0.2-0.1,0.2-0.3,0.1-0.5l0-0.1c-0.1-0.1-0.3-0.2-0.5,0
		C12.1,57,12.1,57.2,12.2,57.3z"/>
	<path d="M7.6,47.8L7.6,47.8c-0.1-0.2-0.2-0.3-0.5-0.2c-0.2,0.1-0.3,0.2-0.2,0.4L7,48c0.1,0.2,0.2,0.2,0.4,0.2
		C7.6,48.1,7.7,47.9,7.6,47.8z"/>
	<path d="M7.3,48.8C7.3,49,7.5,49.1,7.7,49c0.2-0.1,0.3-0.2,0.2-0.4l0-0.1c-0.1-0.2-0.2-0.2-0.4-0.2C7.2,48.5,7.2,48.6,7.3,48.8
		L7.3,48.8z"/>
	<path d="M5.3,38.3c-0.2,0-0.3,0.1-0.3,0.3l0,0.1C5,38.9,5.1,39,5.3,39c0.2,0,0.3-0.1,0.3-0.3l0-0.1C5.6,38.4,5.5,38.3,5.3,38.3z"/>
	<path d="M1.3,31.2L1.3,31.2c0,0.3,0.1,0.4,0.3,0.4c0.2,0,0.4-0.1,0.4-0.3l0-0.1C2,31.1,1.9,31,1.6,31C1.4,30.9,1.3,31,1.3,31.2z"/>
	<path d="M1.8,32.3L1.8,32.3c0-0.3-0.1-0.4-0.3-0.4c-0.2,0-0.4,0.1-0.4,0.3l0,0.1c0,0.2,0.1,0.3,0.3,0.3C1.7,32.6,1.8,32.4,1.8,32.3
		z"/>
	<path d="M4.5,32.1c0.2-1.9,0-2.6-1-2.8c-0.2,0-0.4,0-0.8,0l-0.6,0l0,0.5l0.6,0c0.4,0,0.6,0,0.8,0c0.5,0.1,0.6,0.4,0.4,1.7l-0.1,1
		c-0.1,1.1-0.5,1.6-1,1.6c-0.3,0-0.6-0.2-1-0.4L1.6,34c0.4,0.3,0.8,0.4,1.2,0.4C3.8,34.6,4.3,34,4.5,32.1z"/>
	<path d="M5.3,27.7L5.3,27.7L5.5,27l0,0l0.2-0.7l0,0l0.2-0.7l0,0l0.2-0.7l0,0l0.2-0.7l0,0l0.3-0.7l0,0l0.3-0.6l0,0l0.3-0.6l0,0
		l0.3-0.7l0,0l0.3-0.6l0,0l0.3-0.6l0,0l0.3-0.6l0-0.1c0.5-0.8,0.7-1.3,1-2.1l0.3-0.9l-0.5-0.2L9,17c-0.1,0.2-0.2,0.4-0.3,0.6
		c-0.3,0.5-0.9,0.7-1.4,0.4c-0.4-0.3-0.5-0.7-0.3-1.1c0.2-0.3,0.4-0.5,0.8-0.5l-0.2-0.5c-0.5,0-0.9,0.2-1.2,0.7
		c-0.4,0.6-0.2,1.4,0.5,1.9c0.4,0.3,0.9,0.3,1.3,0.1l0,0L8,19.3l0,0.1l-0.3,0.6l0,0l-0.3,0.7l0,0L7,21.2l0,0l-0.3,0.7l0,0l0,0
		l-0.3,0.7l0,0l0,0l0,0l0,0l-0.3,0.7l0,0l-0.3,0.7l0,0l0,0l-0.3,0.7l0,0l-0.2,0.7l0,0L5.1,26l0,0l0,0l-0.2,0.7l0,0l-0.2,0.7l0,0
		l-0.1,0.2c-0.1,0.4-0.3,0.6-0.6,0.5l-3.9-0.9L0,27.6l3.9,0.9C4.7,28.7,5.1,28.5,5.3,27.7z"/>
	<path d="M9.5,16c0.6,0.4,1.2,0.3,1.6-0.2c0.2-0.3,0.3-0.7,0.1-1l0,0l0.1,0.1c0.7,0.5,0.8,1.3,0.1,2.2l-0.3,0.4l0.5,0.4l0.3-0.4
		c0.9-1.1,0.6-2.2-0.6-3.1c-1-0.7-1.9-0.8-2.3-0.2C8.6,14.6,8.8,15.5,9.5,16z M9.5,14.4c0.3-0.4,0.9-0.4,1.5,0.1
		c0,0.2,0,0.4-0.3,0.7l-0.1,0.1c-0.3,0.4-0.6,0.4-0.9,0.2C9.3,15.2,9.2,14.8,9.5,14.4z"/>
	<path d="M20.6,4.1L20.6,4.1c0.2-0.1,0.3-0.3,0.2-0.5c-0.1-0.2-0.3-0.2-0.4-0.1l-0.1,0C20.1,3.6,20,3.8,20.1,4
		C20.2,4.2,20.4,4.2,20.6,4.1z"/>
	<path d="M19.7,3.6L19.7,3.6C20,3.5,20,3.3,19.9,3.1S19.6,2.9,19.5,3l-0.1,0c-0.1,0.1-0.2,0.2-0.1,0.4S19.6,3.7,19.7,3.6z"/>
	<path d="M19.5,3.9L19.5,3.9c-0.2,0.1-0.3,0.3-0.2,0.5s0.3,0.2,0.4,0.1l0.1,0c0.2-0.1,0.2-0.2,0.1-0.4C19.8,3.9,19.7,3.8,19.5,3.9z"
		/>
	<path d="M31.9,0c-0.6,0.1-0.8,0.5-0.9,1.1l-0.1,0.5c-0.1,0.5-0.2,0.7-0.5,0.7l0,0l-0.6,0.2l0,0L29,2.8v0l0,0l0,0l0,0L28.3,3l0,0
		l-0.7,0.2l0,0l0,0l-0.7,0.2l0,0l-0.7,0.2l0,0l-0.7,0.3l0,0l0,0l-0.7,0.3l0,0l-0.7,0.3l0,0l-0.6,0.3l-0.1-0.1l-0.2,0.1
		C22.9,5,22.6,5,22.4,4.6L22,3.9l-0.4,0.2L22,4.8c0.3,0.4,0.2,0.6,0,0.8l-0.1,0.1c-0.3,0.2-0.5,0.1-0.7-0.4l-0.3-0.5l-0.4,0.2
		l0.3,0.5c0.2,0.4,0.2,0.7-0.2,0.9c-0.2,0.1-0.5,0.2-0.9,0.2l-0.1,0l0-0.8L19,6l0,0.7c0,0.5,0,0.7-0.4,0.8l-0.2,0.1l0,0.2L18,8.1
		l0,0l-0.6,0.4l0,0l-0.6,0.4l0,0l-0.6,0.5l0,0l-0.6,0.5l0,0l-0.5,0.5l0,0l0,0l0,0l0,0l-0.5,0.5l0,0l0,0l0,0v0l-0.5,0.5v0l-0.5,0.5
		l0,0l-0.5,0.5l0,0l-0.4,0.5c-0.2-0.2-0.5-0.3-0.7-0.5l-0.5-0.3l-0.2,0.4l0.7,0.4c0.2,0.1,0.5,0.3,0.7,0.5c0.5,0.5,0.9,1.1,0.2,1.8
		l-0.2,0.2l0.4,0.4l0.2-0.2c0.8-0.9,0.5-1.7-0.1-2.4l0.3-0.3l0,0l0.5-0.5l0,0l0.5-0.5v0l0.5-0.5l0,0l0.5-0.5l0,0l0.5-0.5l0,0
		l0.5-0.5l0,0l0.6-0.5l0,0l0.6-0.4l0,0l0.6-0.4l0,0l0.6-0.4l0-0.2c0.3-0.2,0.5-0.4,0.6-0.8l0.3,0c0.4,0,0.7,0,1-0.2
		c0.4-0.2,0.5-0.6,0.3-1l0,0c0.3,0.3,0.7,0.4,1.1,0.2c0.4-0.2,0.5-0.5,0.3-0.9l0,0c0.3,0.3,0.7,0.3,1.2,0l0,0.1l0.7-0.3l0,0l0.7-0.3
		l0,0l0.6-0.3l0,0l0.7-0.3l0,0L26.9,4l0,0l0.7-0.2l0,0l0.7-0.2l0,0L29,3.4l0,0l0.7-0.2l0,0L30.4,3l0-0.1c0.3-0.1,0.6-0.2,0.7-0.5
		L33,2.5l0.3-0.7l-0.1-0.3C33.1,0.5,32.5-0.1,31.9,0z M31.3,1.8l0.1-0.5c0.1-0.3,0.2-0.6,0.5-0.7c0.4-0.1,0.7,0.3,0.9,1l0.1,0.3
		L31.3,1.8z"/>
	<path d="M41,1.3c-0.3,0-0.4,0.1-0.5,0.4l0,0.1c0,0.2,0.1,0.4,0.4,0.4c0.3,0,0.4-0.1,0.5-0.4l0-0.1C41.4,1.5,41.3,1.3,41,1.3z"/>
</g>
</svg>
