<?xml version="1.0" encoding="utf-8"?>
<!-- Generator: Adobe Illustrator 28.0.0, SVG Export Plug-In . SVG Version: 6.00 Build 0)  -->
<svg version="1.1" id="Layer_1" xmlns="http://www.w3.org/2000/svg" xmlns:xlink="http://www.w3.org/1999/xlink" x="0px" y="0px"
	 viewBox="0 0 82.5 82.9" style="enable-background:new 0 0 82.5 82.9;" xml:space="preserve">
<style type="text/css">
	.st0{fill:#FFFFFF;}
	path{fill:#FFFFFF;}
</style>
<g>
	<path class="st0" d="M-344.8-127.6c-0.4-0.4-0.6-0.8-0.6-1.5v-0.6h0.9v0.5c0,0.4,0.1,0.7,0.4,1c0.3,0.2,0.6,0.4,1.1,0.4
		c0.5,0,0.8-0.1,1.1-0.3c0.3-0.2,0.4-0.5,0.4-0.8c0-0.2-0.1-0.4-0.3-0.6c-0.2-0.2-0.4-0.4-0.7-0.5l-1.3-0.5c-0.4-0.2-0.8-0.4-1-0.8
		c-0.2-0.3-0.4-0.7-0.4-1.1c0-0.6,0.2-1,0.6-1.4c0.4-0.3,0.9-0.5,1.7-0.5c0.7,0,1.3,0.2,1.7,0.5c0.4,0.4,0.6,0.8,0.6,1.5v0.6h-0.9
		v-0.5c0-0.4-0.1-0.7-0.4-1s-0.6-0.4-1-0.4c-0.4,0-0.8,0.1-1,0.3c-0.2,0.2-0.4,0.4-0.4,0.8c0,0.2,0.1,0.5,0.3,0.7
		c0.2,0.2,0.4,0.4,0.8,0.5l1.2,0.5c0.5,0.2,0.8,0.4,1.1,0.8c0.3,0.3,0.4,0.7,0.4,1.1c0,0.6-0.2,1.1-0.6,1.4c-0.4,0.3-1,0.5-1.8,0.5
		C-343.8-127.1-344.3-127.2-344.8-127.6z"/>
	<path class="st0" d="M-334.4-128c-0.6-0.6-0.8-1.5-0.8-2.7c0-0.8,0.1-1.4,0.4-2c0.3-0.5,0.6-1,1.1-1.2c0.5-0.3,1.1-0.4,1.7-0.4
		c0.5,0,1,0.1,1.4,0.3c0.4,0.2,0.7,0.5,1,0.9c0.2,0.4,0.4,0.8,0.4,1.3v0.2h-0.9v-0.2c0-0.3-0.1-0.6-0.2-0.9s-0.4-0.5-0.7-0.6
		s-0.6-0.2-1-0.2c-0.7,0-1.3,0.3-1.7,0.8c-0.4,0.5-0.6,1.2-0.6,2.1c0,0.9,0.2,1.6,0.6,2.1c0.4,0.5,1,0.8,1.7,0.8
		c0.4,0,0.7-0.1,1.1-0.2c0.3-0.1,0.6-0.3,0.7-0.6c0.2-0.3,0.3-0.5,0.3-0.8v-0.2h0.9v0.2c0,0.5-0.1,0.9-0.4,1.2
		c-0.2,0.4-0.6,0.7-1,0.9s-0.9,0.3-1.5,0.3C-333.1-127.1-333.8-127.4-334.4-128z"/>
	<path class="st0" d="M-323.3-127.2v-7h2.2c0.8,0,1.3,0.2,1.7,0.5c0.4,0.3,0.6,0.8,0.6,1.5c0,0.6-0.2,1.1-0.5,1.4
		c-0.3,0.3-0.8,0.5-1.4,0.5v0.4c0.3,0,0.6,0.1,0.8,0.3c0.2,0.2,0.4,0.5,0.6,0.8l0.6,1.6l-0.9,0l-0.6-1.5c-0.1-0.4-0.3-0.6-0.6-0.8
		c-0.3-0.2-0.6-0.3-0.9-0.3h-0.8v2.6H-323.3z M-321-130.6c0.4,0,0.8-0.1,1-0.4c0.2-0.3,0.4-0.6,0.4-1.1c0-0.4-0.1-0.8-0.4-1
		s-0.6-0.4-1.1-0.4h-1.4v2.8H-321z"/>
	<path class="st0" d="M-311.7-127.5c-0.5-0.3-0.9-0.7-1.1-1.3c-0.3-0.6-0.4-1.2-0.4-1.9c0-0.7,0.1-1.4,0.4-1.9
		c0.3-0.5,0.6-1,1.1-1.3c0.5-0.3,1.1-0.4,1.8-0.4s1.3,0.1,1.8,0.4c0.5,0.3,0.9,0.7,1.1,1.3c0.3,0.5,0.4,1.2,0.4,1.9
		c0,0.7-0.1,1.4-0.4,1.9c-0.3,0.5-0.6,1-1.1,1.3s-1.1,0.4-1.8,0.4S-311.2-127.2-311.7-127.5z M-308.7-128.2c0.4-0.2,0.6-0.6,0.8-1
		c0.2-0.4,0.3-0.9,0.3-1.5c0-0.6-0.1-1.1-0.3-1.5c-0.2-0.4-0.5-0.8-0.8-1c-0.4-0.2-0.8-0.4-1.3-0.4s-0.9,0.1-1.3,0.4
		c-0.4,0.2-0.6,0.6-0.8,1c-0.2,0.4-0.3,0.9-0.3,1.5c0,0.6,0.1,1.1,0.3,1.5c0.2,0.4,0.5,0.8,0.8,1c0.4,0.2,0.8,0.4,1.3,0.4
		S-309.1-128-308.7-128.2z"/>
	<path class="st0" d="M-299.9-134.2v6.2h3.4v0.8h-4.2v-7H-299.9z"/>
	<path class="st0" d="M-290.1-134.2v6.2h3.4v0.8h-4.2v-7H-290.1z"/>
	<path class="st0" d="M-274.2-127.2v-7h1.8c0.7,0,1.3,0.1,1.8,0.4c0.5,0.3,0.9,0.7,1.2,1.2s0.4,1.1,0.4,1.9c0,0.7-0.1,1.4-0.4,1.9
		s-0.7,0.9-1.2,1.2c-0.5,0.3-1.1,0.4-1.8,0.4H-274.2z M-272.4-128c0.8,0,1.4-0.2,1.8-0.7c0.4-0.5,0.6-1.2,0.6-2c0-0.8-0.2-1.5-0.6-2
		c-0.4-0.5-1-0.7-1.8-0.7h-1v5.4H-272.4z"/>
	<path class="st0" d="M-262.1-127.5c-0.5-0.3-0.9-0.7-1.1-1.3c-0.3-0.6-0.4-1.2-0.4-1.9c0-0.7,0.1-1.4,0.4-1.9
		c0.3-0.5,0.6-1,1.1-1.3c0.5-0.3,1.1-0.4,1.8-0.4s1.3,0.1,1.8,0.4c0.5,0.3,0.9,0.7,1.1,1.3c0.3,0.5,0.4,1.2,0.4,1.9
		c0,0.7-0.1,1.4-0.4,1.9c-0.3,0.5-0.6,1-1.1,1.3s-1.1,0.4-1.8,0.4S-261.6-127.2-262.1-127.5z M-259.1-128.2c0.4-0.2,0.6-0.6,0.8-1
		c0.2-0.4,0.3-0.9,0.3-1.5c0-0.6-0.1-1.1-0.3-1.5c-0.2-0.4-0.5-0.8-0.8-1c-0.4-0.2-0.8-0.4-1.3-0.4s-0.9,0.1-1.3,0.4
		c-0.4,0.2-0.6,0.6-0.8,1c-0.2,0.4-0.3,0.9-0.3,1.5c0,0.6,0.1,1.1,0.3,1.5c0.2,0.4,0.5,0.8,0.8,1c0.4,0.2,0.8,0.4,1.3,0.4
		S-259.4-128-259.1-128.2z"/>
	<path class="st0" d="M-250.1-127.2l-1.9-7h0.9l1.1,4.1c0.1,0.4,0.2,0.7,0.2,1.1c0.1,0.4,0.1,0.7,0.1,1h0.4c0-0.4,0-0.7,0-1.1
		c0-0.4,0.1-0.7,0.2-1l0.9-4.1h1.2l0.9,4.1c0.1,0.3,0.1,0.6,0.2,1c0,0.4,0,0.7,0,1.1h0.4c0-0.3,0-0.6,0.1-1c0.1-0.4,0.1-0.7,0.2-1.1
		l1.1-4.1h0.9l-1.9,7h-1.2l-0.8-3.9c-0.1-0.4-0.2-0.8-0.2-1.2c0-0.4,0-0.8,0-1.2h-0.4c0,0.4,0,0.8,0,1.2c0,0.4-0.1,0.8-0.2,1.2
		l-0.8,3.9H-250.1z"/>
	<path class="st0" d="M-237.6-127.2v-7h1.1l3.4,5.8l0.3-0.2c-0.1-0.2-0.2-0.4-0.2-0.7c-0.1-0.3-0.1-0.5-0.1-0.8v-4.1h0.9v7h-1.2
		l-3.4-5.8l-0.3,0.2c0.1,0.2,0.2,0.4,0.2,0.7c0.1,0.3,0.1,0.5,0.1,0.8v4.1H-237.6z"/>
	<path class="st0" d="M-218-127.2h-0.9v-7h4.2v0.8h-3.4v2.5h3.2v0.8h-3.2V-127.2z"/>
	<path class="st0" d="M-207.9-127.5c-0.5-0.3-0.9-0.7-1.1-1.3c-0.3-0.6-0.4-1.2-0.4-1.9c0-0.7,0.1-1.4,0.4-1.9
		c0.3-0.5,0.6-1,1.1-1.3c0.5-0.3,1.1-0.4,1.8-0.4c0.7,0,1.3,0.1,1.8,0.4c0.5,0.3,0.9,0.7,1.1,1.3c0.3,0.5,0.4,1.2,0.4,1.9
		c0,0.7-0.1,1.4-0.4,1.9c-0.3,0.5-0.6,1-1.1,1.3s-1.1,0.4-1.8,0.4C-206.8-127.1-207.4-127.2-207.9-127.5z M-204.8-128.2
		c0.4-0.2,0.6-0.6,0.8-1c0.2-0.4,0.3-0.9,0.3-1.5c0-0.6-0.1-1.1-0.3-1.5c-0.2-0.4-0.5-0.8-0.8-1c-0.4-0.2-0.8-0.4-1.3-0.4
		s-0.9,0.1-1.3,0.4c-0.4,0.2-0.6,0.6-0.8,1c-0.2,0.4-0.3,0.9-0.3,1.5c0,0.6,0.1,1.1,0.3,1.5c0.2,0.4,0.5,0.8,0.8,1
		c0.4,0.2,0.8,0.4,1.3,0.4S-205.2-128-204.8-128.2z"/>
	<path class="st0" d="M-196.9-127.2v-7h2.2c0.8,0,1.3,0.2,1.7,0.5c0.4,0.3,0.6,0.8,0.6,1.5c0,0.6-0.2,1.1-0.5,1.4
		c-0.3,0.3-0.8,0.5-1.4,0.5v0.4c0.3,0,0.6,0.1,0.8,0.3c0.2,0.2,0.4,0.5,0.6,0.8l0.6,1.6l-0.9,0l-0.6-1.5c-0.1-0.4-0.3-0.6-0.6-0.8
		c-0.3-0.2-0.6-0.3-0.9-0.3h-0.8v2.6H-196.9z M-194.6-130.6c0.4,0,0.8-0.1,1-0.4c0.2-0.3,0.3-0.6,0.3-1.1c0-0.4-0.1-0.8-0.4-1
		s-0.6-0.4-1.1-0.4h-1.4v2.8H-194.6z"/>
	<path class="st0" d="M-179.4-127.2v-7h1.3l1.4,4c0.2,0.6,0.3,1,0.4,1.4c0.1,0.4,0.2,0.6,0.2,0.8h0.4c0-0.2,0.1-0.5,0.2-0.8
		c0.1-0.4,0.3-0.8,0.4-1.4l1.4-4h1.3v7h-0.9v-3.6c0-0.7,0.1-1.4,0.4-2l-0.4-0.1l-2,5.8h-1.3l-2-5.8l-0.4,0.1c0.2,0.7,0.4,1.3,0.4,2
		v3.6H-179.4z"/>
	<path class="st0" d="M-165-127.5c-0.5-0.3-0.9-0.7-1.1-1.3c-0.3-0.6-0.4-1.2-0.4-1.9c0-0.7,0.1-1.4,0.4-1.9c0.3-0.5,0.6-1,1.1-1.3
		c0.5-0.3,1.1-0.4,1.8-0.4c0.7,0,1.3,0.1,1.8,0.4c0.5,0.3,0.9,0.7,1.1,1.3c0.3,0.5,0.4,1.2,0.4,1.9c0,0.7-0.1,1.4-0.4,1.9
		c-0.3,0.5-0.6,1-1.1,1.3s-1.1,0.4-1.8,0.4C-163.9-127.1-164.5-127.2-165-127.5z M-162-128.2c0.4-0.2,0.6-0.6,0.8-1
		c0.2-0.4,0.3-0.9,0.3-1.5c0-0.6-0.1-1.1-0.3-1.5c-0.2-0.4-0.5-0.8-0.8-1c-0.4-0.2-0.8-0.4-1.3-0.4s-0.9,0.1-1.3,0.4
		c-0.4,0.2-0.6,0.6-0.8,1c-0.2,0.4-0.3,0.9-0.3,1.5c0,0.6,0.1,1.1,0.3,1.5c0.2,0.4,0.5,0.8,0.8,1c0.4,0.2,0.8,0.4,1.3,0.4
		S-162.3-128-162-128.2z"/>
	<path class="st0" d="M-154.1-127.2v-7h2.2c0.8,0,1.3,0.2,1.7,0.5c0.4,0.3,0.6,0.8,0.6,1.5c0,0.6-0.2,1.1-0.5,1.4
		c-0.3,0.3-0.8,0.5-1.4,0.5v0.4c0.3,0,0.6,0.1,0.8,0.3c0.2,0.2,0.4,0.5,0.6,0.8l0.6,1.6l-0.9,0l-0.6-1.5c-0.1-0.4-0.3-0.6-0.6-0.8
		c-0.3-0.2-0.6-0.3-0.9-0.3h-0.8v2.6H-154.1z M-151.8-130.6c0.4,0,0.8-0.1,1-0.4c0.2-0.3,0.3-0.6,0.3-1.1c0-0.4-0.1-0.8-0.4-1
		s-0.6-0.4-1.1-0.4h-1.4v2.8H-151.8z"/>
	<path class="st0" d="M-139.5-127.2h-4v-7h4v0.8h-3.2v2.4h3v0.8h-3v2.3h3.2V-127.2z"/>
</g>
<g>
	<path d="M56.4,10.1c-0.2-0.5-0.1-1,0.2-1.6l0.3-0.5l0.8,0.4l-0.2,0.4c-0.2,0.4-0.2,0.7-0.1,1s0.4,0.6,0.8,0.8
		c0.4,0.2,0.8,0.3,1.1,0.3c0.3,0,0.6-0.2,0.7-0.5C60,10.2,60.1,10,60,9.7c-0.1-0.3-0.2-0.5-0.4-0.8l-0.9-1.1
		c-0.3-0.4-0.5-0.8-0.5-1.2s0-0.8,0.2-1.2C58.6,5,59,4.7,59.5,4.6c0.5-0.1,1.1,0,1.7,0.4c0.6,0.3,1,0.8,1.2,1.3
		c0.2,0.5,0.1,1-0.2,1.6l-0.3,0.5l-0.8-0.4l0.2-0.4c0.2-0.4,0.3-0.7,0.1-1s-0.4-0.6-0.7-0.8c-0.4-0.2-0.7-0.3-1-0.2
		s-0.5,0.2-0.7,0.5C59,6.1,59,6.4,59.1,6.6c0.1,0.3,0.2,0.5,0.4,0.8l0.8,1c0.3,0.4,0.5,0.8,0.6,1.2s0,0.8-0.2,1.2
		c-0.3,0.5-0.7,0.8-1.2,0.9s-1.1,0-1.8-0.4C57.1,11,56.6,10.6,56.4,10.1z"/>
	<path d="M65.2,15.5c0.1-0.9,0.5-1.7,1.4-2.5c0.5-0.5,1.1-0.9,1.7-1.1c0.6-0.2,1.1-0.2,1.7-0.1s1,0.5,1.5,0.9
		c0.4,0.4,0.6,0.8,0.7,1.2s0.1,0.9,0,1.3c-0.1,0.4-0.3,0.8-0.7,1.1l-0.1,0.1l-0.6-0.6l0.1-0.1c0.2-0.2,0.4-0.5,0.5-0.8
		c0.1-0.3,0.1-0.6,0-0.9s-0.3-0.6-0.5-0.8c-0.5-0.5-1.1-0.7-1.7-0.7c-0.6,0.1-1.3,0.4-1.9,1c-0.7,0.6-1,1.3-1.1,1.9
		c-0.1,0.6,0.1,1.2,0.6,1.7c0.3,0.3,0.6,0.5,0.9,0.6c0.3,0.1,0.6,0.2,0.9,0.1s0.6-0.2,0.8-0.4l0.1-0.1l0.6,0.6l-0.1,0.1
		c-0.3,0.3-0.7,0.5-1.2,0.6c-0.4,0.1-0.9,0-1.3-0.2c-0.5-0.2-0.9-0.5-1.3-0.9C65.4,17.1,65.1,16.3,65.2,15.5z"/>
	<path d="M71.3,24.4l6.3-3.1l1,2c0.3,0.7,0.4,1.3,0.3,1.8s-0.5,0.9-1,1.2c-0.5,0.3-1,0.3-1.5,0.2c-0.4-0.2-0.8-0.5-1.1-1.1l-0.4,0.2
		c0.1,0.3,0.2,0.6,0.1,0.9c-0.1,0.3-0.2,0.6-0.5,0.9l-1.2,1.3l-0.4-0.8l1.1-1.1c0.3-0.3,0.4-0.6,0.5-0.9c0.1-0.3,0-0.6-0.1-0.9
		L74,24.1l-2.3,1.1L71.3,24.4z M75.3,25c0.2,0.4,0.5,0.6,0.8,0.7s0.7,0,1.1-0.2c0.4-0.2,0.6-0.4,0.7-0.8c0.1-0.3,0-0.7-0.2-1.1
		l-0.6-1.2l-2.6,1.2L75.3,25z"/>
	<path d="M75.4,34.9c0.2-0.5,0.6-1,1.1-1.3s1.1-0.6,1.9-0.7c0.7-0.1,1.4-0.1,2,0.1c0.6,0.2,1,0.5,1.4,1s0.6,1,0.7,1.7
		c0.1,0.7,0,1.3-0.2,1.8c-0.2,0.5-0.6,1-1.1,1.3c-0.5,0.3-1.1,0.6-1.9,0.7c-0.7,0.1-1.4,0.1-2-0.1c-0.6-0.2-1.1-0.5-1.4-1
		c-0.4-0.5-0.6-1-0.7-1.7S75.2,35.5,75.4,34.9z M76.5,37.8c0.3,0.3,0.6,0.6,1.1,0.7s1,0.2,1.6,0.1c0.6-0.1,1.1-0.2,1.5-0.5
		s0.7-0.6,0.9-1c0.2-0.4,0.2-0.8,0.2-1.3c-0.1-0.5-0.2-0.9-0.5-1.2c-0.3-0.3-0.6-0.6-1.1-0.7c-0.5-0.1-1-0.2-1.5-0.1
		c-0.6,0.1-1.1,0.2-1.5,0.5c-0.4,0.2-0.7,0.6-0.9,1c-0.2,0.4-0.2,0.8-0.2,1.3S76.2,37.5,76.5,37.8z"/>
	<path d="M82.2,47.6l-6.1-1.1l-0.6,3.3l-0.8-0.1l0.7-4.2l6.9,1.2L82.2,47.6z"/>
	<path d="M78.9,58.6l-5.6-2.7l-1.5,3l-0.7-0.3l1.9-3.8l6.3,3.1L78.9,58.6z"/>
	<path d="M63.3,67.8l4.1,5.7l-1.5,1.1c-0.6,0.4-1.1,0.7-1.7,0.7c-0.6,0.1-1.1,0-1.6-0.3s-1-0.7-1.4-1.3c-0.4-0.6-0.7-1.2-0.8-1.8
		s0-1.1,0.2-1.7c0.2-0.5,0.7-1,1.2-1.4L63.3,67.8z M62.3,69.5c-0.6,0.5-1,1-1,1.6c-0.1,0.6,0.2,1.3,0.7,2c0.5,0.7,1.1,1.1,1.7,1.2
		c0.6,0.1,1.3,0,1.9-0.5l0.8-0.6L63.1,69L62.3,69.5z"/>
	<path d="M53.2,74c0.6,0.1,1.1,0.4,1.5,0.9c0.4,0.4,0.7,1,1,1.7c0.2,0.7,0.3,1.4,0.2,2c-0.1,0.6-0.3,1.1-0.7,1.5s-0.9,0.7-1.5,0.9
		c-0.6,0.2-1.2,0.2-1.8,0.1c-0.6-0.1-1.1-0.4-1.5-0.9c-0.4-0.4-0.7-1-0.9-1.7c-0.2-0.7-0.3-1.4-0.2-2c0.1-0.6,0.3-1.1,0.7-1.5
		s0.9-0.7,1.5-0.9C52,73.8,52.6,73.8,53.2,74z M50.5,75.5c-0.3,0.3-0.4,0.7-0.5,1.2s0,1,0.2,1.5c0.2,0.6,0.4,1,0.7,1.4
		s0.7,0.6,1.1,0.7s0.8,0.1,1.3,0s0.8-0.4,1.1-0.7c0.3-0.3,0.4-0.7,0.5-1.2s0-1-0.2-1.5c-0.2-0.6-0.4-1-0.7-1.4s-0.7-0.6-1.1-0.7
		s-0.8-0.1-1.3,0S50.8,75.2,50.5,75.5z"/>
	<path d="M41.7,75.8l1.5,7.1l-0.9-0.1l-0.8-4.2c-0.1-0.4-0.1-0.7-0.2-1.1c0-0.4,0-0.7,0-1l-0.4,0c0,0.4-0.1,0.7-0.1,1.1
		c-0.1,0.4-0.1,0.7-0.2,1l-1.2,4.1l-1.2-0.1l-0.7-4.2c0-0.3-0.1-0.6-0.1-1s0-0.7,0-1.1l-0.4,0c0,0.3-0.1,0.6-0.1,1s-0.2,0.7-0.3,1.1
		l-1.3,4.1l-0.9-0.1l2.3-6.9l1.2,0.1l0.6,3.9c0.1,0.4,0.1,0.8,0.1,1.2s0,0.8,0,1.2l0.4,0c0-0.4,0.1-0.8,0.1-1.2
		c0.1-0.4,0.1-0.8,0.3-1.2l1.1-3.8L41.7,75.8z"/>
	<path d="M29.8,73.8L27,80.2l-1.1-0.5l-0.8-6.7l-0.4,0c0,0.2,0,0.4,0,0.7c-0.1,0.3-0.1,0.5-0.2,0.8l-1.7,3.8L22,78l2.9-6.4l1.1,0.5
		l0.7,6.7l0.4,0c0-0.2,0-0.4,0-0.7c0.1-0.3,0.1-0.5,0.2-0.8l1.7-3.8L29.8,73.8z"/>
	<path d="M14.4,62.7l0.5,0.7l-5.6,4.2l-2.6-3.4l0.6-0.5l2,2.7l2-1.5l-1.9-2.6l0.6-0.5l1.9,2.6L14.4,62.7z"/>
	<path d="M9.2,54.3c-0.1,0.6-0.4,1.1-0.8,1.5c-0.4,0.4-1,0.8-1.7,1c-0.7,0.2-1.4,0.3-2,0.3c-0.6-0.1-1.1-0.3-1.6-0.7
		c-0.4-0.4-0.8-0.9-1-1.5S1.8,53.7,2,53.1c0.1-0.6,0.4-1.1,0.8-1.5c0.4-0.4,1-0.8,1.7-1c0.7-0.2,1.4-0.3,2-0.3
		C7.1,50.4,7.6,50.6,8,51c0.4,0.4,0.8,0.9,1,1.5S9.3,53.8,9.2,54.3z M7.5,51.7c-0.3-0.3-0.7-0.4-1.2-0.5c-0.5,0-1,0-1.5,0.2
		c-0.5,0.2-1,0.4-1.3,0.8s-0.6,0.7-0.7,1.1c-0.1,0.4-0.1,0.9,0.1,1.3c0.2,0.5,0.4,0.8,0.7,1.1c0.3,0.3,0.7,0.4,1.2,0.5
		c0.5,0,1,0,1.5-0.2c0.6-0.2,1-0.4,1.4-0.8c0.3-0.3,0.6-0.7,0.7-1.1c0.1-0.4,0.1-0.9-0.1-1.3C8.1,52.3,7.9,52,7.5,51.7z"/>
	<path d="M7,44l-7,0.1l0-2.2c0-0.8,0.1-1.3,0.5-1.7c0.3-0.4,0.8-0.6,1.5-0.6c0.6,0,1.1,0.2,1.4,0.5c0.3,0.3,0.5,0.8,0.5,1.4l0.4,0
		c0-0.3,0.1-0.6,0.3-0.8C4.7,40.3,5,40.1,5.4,40l1.6-0.6l0,0.9l-1.4,0.6c-0.4,0.1-0.6,0.4-0.8,0.6c-0.2,0.3-0.3,0.6-0.3,0.9l0,0.8
		l2.6,0L7,44z M3.6,41.7c0-0.4-0.1-0.8-0.4-1c-0.3-0.2-0.6-0.3-1.1-0.3c-0.4,0-0.8,0.1-1,0.4c-0.2,0.3-0.3,0.6-0.3,1.1l0,1.4l2.8,0
		L3.6,41.7z"/>
	<path d="M9.8,27.3l-6.1-3.5l0.7-1.2l4.2,0.8c0.6,0.1,1,0.2,1.4,0.3s0.6,0.2,0.8,0.3l0.2-0.3c-0.2-0.1-0.4-0.3-0.6-0.6
		c-0.3-0.3-0.6-0.6-1-1.1l-2.8-3.2l0.7-1.2l6.1,3.5l-0.4,0.8l-3.1-1.8c-0.6-0.3-1.1-0.8-1.6-1.3L7.9,19l4,4.6l-0.7,1.1l-6-1.2
		L5.2,24c0.7,0.1,1.3,0.3,1.9,0.7l3.1,1.8L9.8,27.3z"/>
	<path d="M17.9,15.8c-0.6,0.1-1.1,0-1.7-0.2c-0.6-0.3-1.1-0.7-1.5-1.2c-0.5-0.6-0.8-1.2-0.9-1.7c-0.1-0.6-0.1-1.2,0.1-1.7
		s0.5-1,1.1-1.5C15.4,9,16,8.7,16.5,8.6s1.1,0,1.7,0.2c0.6,0.3,1.1,0.7,1.5,1.2c0.5,0.6,0.8,1.2,0.9,1.8c0.1,0.6,0.1,1.2-0.1,1.7
		c-0.2,0.5-0.6,1-1.1,1.5S18.5,15.7,17.9,15.8z M19.8,13.3c0.1-0.4,0.1-0.8,0-1.3c-0.1-0.5-0.4-0.9-0.8-1.4c-0.4-0.4-0.8-0.8-1.2-1
		c-0.4-0.2-0.8-0.3-1.3-0.2c-0.4,0-0.8,0.2-1.2,0.5c-0.4,0.3-0.6,0.7-0.7,1.1s-0.1,0.8,0,1.3s0.4,0.9,0.7,1.4c0.4,0.5,0.8,0.8,1.2,1
		s0.9,0.3,1.3,0.2c0.4,0,0.8-0.2,1.2-0.5C19.4,14.1,19.7,13.7,19.8,13.3z"/>
	<path d="M26.9,10.1l-2.5-6.5l2.1-0.8c0.7-0.3,1.3-0.3,1.8-0.2c0.5,0.2,0.9,0.6,1.1,1.1c0.2,0.6,0.2,1.1,0,1.5
		c-0.2,0.4-0.6,0.8-1.2,1l0.1,0.4c0.3-0.1,0.6-0.1,0.9,0c0.3,0.1,0.6,0.3,0.8,0.6l1.2,1.3l-0.8,0.3l-1-1.1c-0.3-0.3-0.6-0.5-0.9-0.6
		s-0.6-0.1-0.9,0l-0.8,0.3l0.9,2.4L26.9,10.1z M27.8,6.1c0.4-0.2,0.7-0.4,0.8-0.7c0.1-0.3,0.1-0.7-0.1-1.2c-0.2-0.4-0.4-0.7-0.7-0.8
		c-0.3-0.1-0.7-0.1-1.1,0.1L25.4,4l1,2.6L27.8,6.1z"/>
	<path d="M40.7,7l-4,0.3l-0.6-7l4-0.3l0.1,0.8L37.1,1l0.2,2.4l3-0.2l0.1,0.8l-3,0.2l0.2,2.3l3.2-0.3L40.7,7z"/>
</g>
</svg>
