<?xml version="1.0" encoding="utf-8"?>
<!-- Generator: Adobe Illustrator 28.0.0, SVG Export Plug-In . SVG Version: 6.00 Build 0)  -->
<svg version="1.1" id="Layer_1" xmlns="http://www.w3.org/2000/svg" xmlns:xlink="http://www.w3.org/1999/xlink" x="0px" y="0px"
	 viewBox="0 0 83.2 83.8" style="enable-background:new 0 0 83.2 83.8;" xml:space="preserve">
<style type="text/css">
	.st0{fill:#FFFFFF;}
	path{fill:#FFFFFF;}
</style>
<g>
	<path class="st0" d="M-336.4-138.3c-0.4-0.4-0.6-0.8-0.6-1.5v-0.6h0.9v0.5c0,0.4,0.1,0.7,0.4,1c0.3,0.2,0.6,0.4,1.1,0.4
		c0.5,0,0.8-0.1,1.1-0.3c0.3-0.2,0.4-0.5,0.4-0.8c0-0.2-0.1-0.4-0.3-0.6c-0.2-0.2-0.4-0.4-0.7-0.5l-1.3-0.5c-0.4-0.2-0.8-0.4-1-0.8
		c-0.2-0.3-0.4-0.7-0.4-1.1c0-0.6,0.2-1,0.6-1.4c0.4-0.3,0.9-0.5,1.7-0.5c0.7,0,1.3,0.2,1.7,0.5c0.4,0.4,0.6,0.8,0.6,1.5v0.6h-0.9
		v-0.5c0-0.4-0.1-0.7-0.4-1s-0.6-0.4-1-0.4c-0.4,0-0.8,0.1-1,0.3c-0.2,0.2-0.4,0.4-0.4,0.8c0,0.2,0.1,0.5,0.3,0.7
		c0.2,0.2,0.4,0.4,0.8,0.5l1.2,0.5c0.5,0.2,0.8,0.4,1.1,0.8c0.3,0.3,0.4,0.7,0.4,1.1c0,0.6-0.2,1.1-0.6,1.4c-0.4,0.3-1,0.5-1.8,0.5
		C-335.4-137.8-336-137.9-336.4-138.3z"/>
	<path class="st0" d="M-326-138.7c-0.6-0.6-0.8-1.5-0.8-2.7c0-0.8,0.1-1.4,0.4-2c0.3-0.5,0.6-1,1.1-1.2c0.5-0.3,1.1-0.4,1.7-0.4
		c0.5,0,1,0.1,1.4,0.3c0.4,0.2,0.7,0.5,1,0.9c0.2,0.4,0.4,0.8,0.4,1.3v0.2h-0.9v-0.2c0-0.3-0.1-0.6-0.2-0.9s-0.4-0.5-0.7-0.6
		s-0.6-0.2-1-0.2c-0.7,0-1.3,0.3-1.7,0.8c-0.4,0.5-0.6,1.2-0.6,2.1c0,0.9,0.2,1.6,0.6,2.1c0.4,0.5,1,0.8,1.7,0.8
		c0.4,0,0.7-0.1,1.1-0.2c0.3-0.1,0.6-0.3,0.7-0.6c0.2-0.3,0.3-0.5,0.3-0.8v-0.2h0.9v0.2c0,0.5-0.1,0.9-0.4,1.2s-0.6,0.7-1,0.9
		s-0.9,0.3-1.5,0.3C-324.7-137.8-325.5-138.1-326-138.7z"/>
	<path class="st0" d="M-315-137.9v-7h2.2c0.8,0,1.3,0.2,1.7,0.5c0.4,0.3,0.6,0.8,0.6,1.5c0,0.6-0.2,1.1-0.5,1.4
		c-0.3,0.3-0.8,0.5-1.4,0.5v0.4c0.3,0,0.6,0.1,0.8,0.3c0.2,0.2,0.4,0.5,0.6,0.8l0.6,1.6l-0.9,0l-0.6-1.5c-0.1-0.4-0.3-0.6-0.6-0.8
		c-0.3-0.2-0.6-0.3-0.9-0.3h-0.8v2.6H-315z M-312.6-141.3c0.4,0,0.8-0.1,1-0.4c0.2-0.3,0.4-0.6,0.4-1.1c0-0.4-0.1-0.8-0.4-1
		s-0.6-0.4-1.1-0.4h-1.4v2.8H-312.6z"/>
	<path class="st0" d="M-303.4-138.2c-0.5-0.3-0.9-0.7-1.1-1.3c-0.3-0.6-0.4-1.2-0.4-1.9c0-0.7,0.1-1.4,0.4-1.9
		c0.3-0.5,0.6-1,1.1-1.3c0.5-0.3,1.1-0.4,1.8-0.4s1.3,0.1,1.8,0.4c0.5,0.3,0.9,0.7,1.1,1.3c0.3,0.5,0.4,1.2,0.4,1.9
		c0,0.7-0.1,1.4-0.4,1.9c-0.3,0.5-0.6,1-1.1,1.3s-1.1,0.4-1.8,0.4S-302.9-137.9-303.4-138.2z M-300.3-138.9c0.4-0.2,0.6-0.6,0.8-1
		c0.2-0.4,0.3-0.9,0.3-1.5c0-0.6-0.1-1.1-0.3-1.5c-0.2-0.4-0.5-0.8-0.8-1c-0.4-0.2-0.8-0.4-1.3-0.4s-0.9,0.1-1.3,0.4
		c-0.4,0.2-0.6,0.6-0.8,1c-0.2,0.4-0.3,0.9-0.3,1.5c0,0.6,0.1,1.1,0.3,1.5c0.2,0.4,0.5,0.8,0.8,1c0.4,0.2,0.8,0.4,1.3,0.4
		S-300.7-138.7-300.3-138.9z"/>
	<path class="st0" d="M-291.6-144.9v6.2h3.4v0.8h-4.2v-7H-291.6z"/>
	<path class="st0" d="M-281.8-144.9v6.2h3.4v0.8h-4.2v-7H-281.8z"/>
	<path class="st0" d="M-265.9-137.9v-7h1.8c0.7,0,1.3,0.1,1.8,0.4c0.5,0.3,0.9,0.7,1.2,1.2s0.4,1.1,0.4,1.9c0,0.7-0.1,1.4-0.4,1.9
		s-0.7,0.9-1.2,1.2c-0.5,0.3-1.1,0.4-1.8,0.4H-265.9z M-264-138.7c0.8,0,1.4-0.2,1.8-0.7c0.4-0.5,0.6-1.2,0.6-2c0-0.8-0.2-1.5-0.6-2
		c-0.4-0.5-1-0.7-1.8-0.7h-1v5.4H-264z"/>
	<path class="st0" d="M-253.7-138.2c-0.5-0.3-0.9-0.7-1.1-1.3c-0.3-0.6-0.4-1.2-0.4-1.9c0-0.7,0.1-1.4,0.4-1.9
		c0.3-0.5,0.6-1,1.1-1.3c0.5-0.3,1.1-0.4,1.8-0.4s1.3,0.1,1.8,0.4c0.5,0.3,0.9,0.7,1.1,1.3c0.3,0.5,0.4,1.2,0.4,1.9
		c0,0.7-0.1,1.4-0.4,1.9c-0.3,0.5-0.6,1-1.1,1.3s-1.1,0.4-1.8,0.4S-253.2-137.9-253.7-138.2z M-250.7-138.9c0.4-0.2,0.6-0.6,0.8-1
		c0.2-0.4,0.3-0.9,0.3-1.5c0-0.6-0.1-1.1-0.3-1.5c-0.2-0.4-0.5-0.8-0.8-1c-0.4-0.2-0.8-0.4-1.3-0.4s-0.9,0.1-1.3,0.4
		c-0.4,0.2-0.6,0.6-0.8,1c-0.2,0.4-0.3,0.9-0.3,1.5c0,0.6,0.1,1.1,0.3,1.5c0.2,0.4,0.5,0.8,0.8,1c0.4,0.2,0.8,0.4,1.3,0.4
		S-251.1-138.7-250.7-138.9z"/>
	<path class="st0" d="M-241.7-137.9l-1.9-7h0.9l1.1,4.1c0.1,0.4,0.2,0.7,0.2,1.1c0.1,0.4,0.1,0.7,0.1,1h0.4c0-0.4,0-0.7,0-1.1
		c0-0.4,0.1-0.7,0.2-1l0.9-4.1h1.2l0.9,4.1c0.1,0.3,0.1,0.6,0.2,1c0,0.4,0,0.7,0,1.1h0.4c0-0.3,0-0.6,0.1-1c0.1-0.4,0.1-0.7,0.2-1.1
		l1.1-4.1h0.9l-1.9,7h-1.2l-0.8-3.9c-0.1-0.4-0.2-0.8-0.2-1.2c0-0.4,0-0.8,0-1.2h-0.4c0,0.4,0,0.8,0,1.2c0,0.4-0.1,0.8-0.2,1.2
		l-0.8,3.9H-241.7z"/>
	<path class="st0" d="M-229.3-137.9v-7h1.1l3.4,5.8l0.3-0.2c-0.1-0.2-0.2-0.4-0.2-0.7c-0.1-0.3-0.1-0.5-0.1-0.8v-4.1h0.9v7h-1.2
		l-3.4-5.8l-0.3,0.2c0.1,0.2,0.2,0.4,0.2,0.7c0.1,0.3,0.1,0.5,0.1,0.8v4.1H-229.3z"/>
	<path class="st0" d="M-209.7-137.9h-0.9v-7h4.2v0.8h-3.4v2.5h3.2v0.8h-3.2V-137.9z"/>
	<path class="st0" d="M-199.5-138.2c-0.5-0.3-0.9-0.7-1.1-1.3c-0.3-0.6-0.4-1.2-0.4-1.9c0-0.7,0.1-1.4,0.4-1.9
		c0.3-0.5,0.6-1,1.1-1.3c0.5-0.3,1.1-0.4,1.8-0.4c0.7,0,1.3,0.1,1.8,0.4c0.5,0.3,0.9,0.7,1.1,1.3c0.3,0.5,0.4,1.2,0.4,1.9
		c0,0.7-0.1,1.4-0.4,1.9c-0.3,0.5-0.6,1-1.1,1.3s-1.1,0.4-1.8,0.4C-198.4-137.8-199-137.9-199.5-138.2z M-196.5-138.9
		c0.4-0.2,0.6-0.6,0.8-1c0.2-0.4,0.3-0.9,0.3-1.5c0-0.6-0.1-1.1-0.3-1.5c-0.2-0.4-0.5-0.8-0.8-1c-0.4-0.2-0.8-0.4-1.3-0.4
		s-0.9,0.1-1.3,0.4c-0.4,0.2-0.6,0.6-0.8,1c-0.2,0.4-0.3,0.9-0.3,1.5c0,0.6,0.1,1.1,0.3,1.5c0.2,0.4,0.5,0.8,0.8,1
		c0.4,0.2,0.8,0.4,1.3,0.4S-196.8-138.7-196.5-138.9z"/>
	<path class="st0" d="M-188.6-137.9v-7h2.2c0.8,0,1.3,0.2,1.7,0.5c0.4,0.3,0.6,0.8,0.6,1.5c0,0.6-0.2,1.1-0.5,1.4
		c-0.3,0.3-0.8,0.5-1.4,0.5v0.4c0.3,0,0.6,0.1,0.8,0.3c0.2,0.2,0.4,0.5,0.6,0.8l0.6,1.6l-0.9,0l-0.6-1.5c-0.1-0.4-0.3-0.6-0.6-0.8
		c-0.3-0.2-0.6-0.3-0.9-0.3h-0.8v2.6H-188.6z M-186.3-141.3c0.4,0,0.8-0.1,1-0.4c0.2-0.3,0.3-0.6,0.3-1.1c0-0.4-0.1-0.8-0.4-1
		s-0.6-0.4-1.1-0.4h-1.4v2.8H-186.3z"/>
	<path class="st0" d="M-171.1-137.9v-7h1.3l1.4,4c0.2,0.6,0.3,1,0.4,1.4c0.1,0.4,0.2,0.6,0.2,0.8h0.4c0-0.2,0.1-0.5,0.2-0.8
		c0.1-0.4,0.3-0.8,0.4-1.4l1.4-4h1.3v7h-0.9v-3.6c0-0.7,0.1-1.4,0.4-2l-0.4-0.1l-2,5.8h-1.3l-2-5.8l-0.4,0.1c0.2,0.7,0.4,1.3,0.4,2
		v3.6H-171.1z"/>
	<path class="st0" d="M-156.6-138.2c-0.5-0.3-0.9-0.7-1.1-1.3c-0.3-0.6-0.4-1.2-0.4-1.9c0-0.7,0.1-1.4,0.4-1.9
		c0.3-0.5,0.6-1,1.1-1.3c0.5-0.3,1.1-0.4,1.8-0.4c0.7,0,1.3,0.1,1.8,0.4c0.5,0.3,0.9,0.7,1.1,1.3c0.3,0.5,0.4,1.2,0.4,1.9
		c0,0.7-0.1,1.4-0.4,1.9c-0.3,0.5-0.6,1-1.1,1.3s-1.1,0.4-1.8,0.4C-155.6-137.8-156.1-137.9-156.6-138.2z M-153.6-138.9
		c0.4-0.2,0.6-0.6,0.8-1c0.2-0.4,0.3-0.9,0.3-1.5c0-0.6-0.1-1.1-0.3-1.5c-0.2-0.4-0.5-0.8-0.8-1c-0.4-0.2-0.8-0.4-1.3-0.4
		s-0.9,0.1-1.3,0.4c-0.4,0.2-0.6,0.6-0.8,1c-0.2,0.4-0.3,0.9-0.3,1.5c0,0.6,0.1,1.1,0.3,1.5c0.2,0.4,0.5,0.8,0.8,1
		c0.4,0.2,0.8,0.4,1.3,0.4S-154-138.7-153.6-138.9z"/>
	<path class="st0" d="M-145.7-137.9v-7h2.2c0.8,0,1.3,0.2,1.7,0.5c0.4,0.3,0.6,0.8,0.6,1.5c0,0.6-0.2,1.1-0.5,1.4
		c-0.3,0.3-0.8,0.5-1.4,0.5v0.4c0.3,0,0.6,0.1,0.8,0.3c0.2,0.2,0.4,0.5,0.6,0.8l0.6,1.6l-0.9,0l-0.6-1.5c-0.1-0.4-0.3-0.6-0.6-0.8
		c-0.3-0.2-0.6-0.3-0.9-0.3h-0.8v2.6H-145.7z M-143.4-141.3c0.4,0,0.8-0.1,1-0.4c0.2-0.3,0.3-0.6,0.3-1.1c0-0.4-0.1-0.8-0.4-1
		s-0.6-0.4-1.1-0.4h-1.4v2.8H-143.4z"/>
	<path class="st0" d="M-131.2-137.9h-4v-7h4v0.8h-3.2v2.4h3v0.8h-3v2.3h3.2V-137.9z"/>
</g>
<g>
	<path d="M54.8,13.1c1.5,0.7,2.6,0.4,3.5-1l0.8,0.4L59,12.6l0.9,0.6l0,0l0.9,0.6l0,0l0.8,0.6l0,0l0.8,0.6l0.1,0l0.3,0.2
		c0.5,0.5,1.1,0.8,1.7,0.9c0.2,0.6,0.6,1.1,1.1,1.6l0,0l0,0l0.7,0.8l0,0l0.7,0.8l0,0l0.7,0.8l0,0l0.6,0.8l0.3,0
		c0.3,0.5,0.6,0.7,1.1,0.8l0,0.4c0,0.6,0.1,1,0.3,1.4c0.3,0.5,0.8,0.6,1.4,0.4l0,0c-0.5,0.5-0.5,1-0.1,1.7c0.5,0.8,1.2,0.9,2,0.4
		c0.2-0.1,0.5-0.4,0.9-0.6l0.4-0.3l-0.4-0.5l-0.4,0.4c-0.3,0.3-0.6,0.5-0.8,0.6c-0.4,0.2-0.6,0.2-0.9-0.2l-0.1-0.2
		c-0.3-0.4-0.1-0.7,0.5-1.1l0.7-0.4l-0.4-0.6l-0.7,0.4c-0.6,0.4-1,0.3-1.3-0.3c-0.2-0.3-0.3-0.7-0.3-1.2l0-0.2l1.1-0.1l-0.1-0.6
		l-0.9,0.1c-0.7,0.1-1,0-1.2-0.5l-0.2-0.3L69,20.1l0,0l-0.5-0.6l0,0l0,0l0,0h0l-0.7-0.8l0,0l0,0l0,0l0,0L67.1,18l0,0l0,0h0l-0.7-0.7
		l0,0l-1.1-1l0,0c0.9,0.1,1.5-0.1,2.1-0.8c0.7-0.8,0.7-1.9-0.1-2.7c-0.8-0.7-1.9-0.5-2.6,0.3c-0.5,0.6-0.6,1.3-0.5,2.2l0,0l-1.1-1
		l-0.1,0l-0.7-0.6l0,0l-0.8-0.6l0,0l0,0l0,0h0l-0.9-0.6l0,0L59.7,12l0.1-0.2l-1.1-0.5l2.8-5.9l-0.7-0.3l-2.9,6.2
		c-0.7,1.4-1.3,1.7-2.4,1.1l-0.5-0.3c-1-0.5-1.3-1.3-0.8-2.3c0.2-0.5,0.7-1,1.1-1.4l-0.5-0.4c-0.6,0.5-1,1.1-1.3,1.6
		C52.8,11.1,53.3,12.4,54.8,13.1z M65.2,13.6c0.5-0.5,1.1-0.6,1.6-0.2l0.1,0.1c0.5,0.4,0.5,1,0,1.6c-0.5,0.5-1.1,0.6-1.9,0.5
		C64.7,14.8,64.7,14.1,65.2,13.6z"/>
	<path d="M68.2,11.9c0.2,0.2,0.4,0.2,0.7-0.1s0.2-0.5,0-0.7l-0.1-0.1c-0.2-0.2-0.4-0.2-0.7,0.1C67.9,11.4,67.9,11.7,68.2,11.9
		L68.2,11.9z"/>
	<path d="M72.9,26.6l-0.7,0.5l1.3,1.7c0.5,0.7,1.1,0.9,2.1,0.7l0,0l-0.4,0.1c-0.9,0.4-1.2,1-0.9,2l-0.1,0l0.3,1l0,0l0.3,1l0,0l0.2,1
		l0,0l0.1,0.4c0.2,1.1,0.8,1.5,2,1.3l5.5-1l-0.1-0.7l-5.5,1c-0.6,0.1-1-0.1-1.1-0.7l-0.1-0.3l0,0l-0.2-1l0,0l-0.3-1l0,0l0,0l0,0l0,0
		l-0.3-1l0.1,0l-0.1-0.3c-0.2-0.5-0.1-0.9,0.5-1.1l5.3-2.1l-0.3-0.7l-3.8,1.5c-1.2,0.5-1.8,0.4-2.4-0.3l4.1-2.6l-0.4-0.6L73.9,28
		L72.9,26.6z"/>
	<path d="M79.9,26.2l-0.2-0.6c-0.2-0.4-0.1-0.7,0.1-0.8c0.2-0.1,0.4,0,0.5,0.3c0.1,0.2,0,0.3,0,0.5l0.6,0.2c0.2-0.2,0.2-0.6,0.1-0.9
		c-0.2-0.5-0.7-0.7-1.2-0.5c-0.2,0.1-0.3,0.2-0.4,0.4l0,0l-0.1-0.3l-0.6,0.2l0.8,1.9L79.9,26.2z"/>
	<path d="M78,45.6c-1,0-1.4-0.4-1.4-1.6l0.1-4l-0.9,0l-0.1,4c0,1.5,0.7,2.3,2.2,2.4l5.1,0.2l0-0.7L78,45.6z"/>
	<path d="M80,42.3c-0.4,0-0.6,0.2-0.7,0.7l0,0.6l0,0l-0.7-1.4l-0.5,0.2l0.5,1c0.2,0.5,0.4,0.7,0.8,0.7c0.3,0,0.6-0.2,0.6-0.5l0-0.8
		l0.1,0l0.6,1.1l0.5-0.3L80.9,43C80.6,42.5,80.3,42.3,80,42.3z"/>
	<path d="M76.9,48.5c-0.4,0-0.8,0-1.2-0.1c-1-0.2-1.9-0.7-1.6-2.1l0.1-0.4l-0.8-0.2l-0.1,0.4c-0.3,1.7,0.7,2.5,1.9,2.8l-0.1,0.6l0,0
		l-0.3,1l0,0l-0.3,1l0,0l-0.3,1l0,0l-0.3,0.9l0.1,0.2L73.9,54c-0.5,1.1-0.8,1.9-0.6,3.8l0.2,1.6L73.1,60l0.8,0.4l0.1-0.1
		c0.2-0.3,0.4-0.7,0.9-1.3l1.6-2c0.3-0.4,0.4-0.5,0.4-0.6c0.2-0.4,0.1-0.9-0.4-1.1l-0.7-0.3l-0.3,0.6l0.8,0.4l-1.3,1.7L74,58.8l0,0
		l0-1c0-1.6,0.2-2.4,0.7-3.4l0.1-0.3l-0.1-0.2L75,53l0,0l0,0l0,0l0,0l0.3-1l0,0l0,0l0,0l0,0l0.3-1l0,0l0,0l0,0l0,0l0.2-1l0,0
		l0.2-0.9c0.4,0.1,0.8,0.1,1.3,0.1l0.8,0l0-0.7L76.9,48.5z"/>
	<path d="M69.1,64.6c-0.3-0.2-0.2-0.4,0.4-1.2l0.8-1.1l0.6,0.5l0.4-0.6l-0.6-0.5c-0.4-0.3-0.9-0.2-1.2,0.1l-0.8,1
		c-0.5,0.7-0.6,1.1-0.1,1.6l0,0c-0.7-0.1-1.1,0-1.5,0.4L67.2,65l-0.7,0.8l0,0l-0.7,0.7l0,0L65,67.2l0,0l-0.8,0.7l0,0L64,68.1
		c-1,0.8-1.2,1.6-0.5,2.5c0.2,0.2,0.4,0.5,0.9,0.9l0.6,0.6l0.5-0.5L65,71c-0.5-0.4-0.7-0.7-0.9-0.8c-0.4-0.5-0.2-0.9,0.5-1.4
		l0.1-0.1l0,0l0.7-0.7l0,0l0.8-0.7l0,0l0.7-0.7l0,0l0.7-0.7l0.1,0.1l0.2-0.2c0.3-0.3,0.6-0.3,1.7,0l2.8,0.9l0.2-0.7l-2.7-0.9
		C69.4,64.8,69.2,64.7,69.1,64.6z"/>
	<path d="M62.9,67.7L62.9,67.7c0.3-0.2,0.3-0.5,0.1-0.7c-0.2-0.3-0.4-0.3-0.7-0.1l-0.1,0.1c-0.2,0.2-0.2,0.4,0,0.7
		C62.4,67.8,62.7,67.8,62.9,67.7z"/>
	<path d="M62.7,74.2L62.7,74.2c-0.3,0.2-0.4,0.4-0.2,0.7c0.2,0.3,0.4,0.3,0.6,0.2l0.1-0.1c0.2-0.1,0.3-0.4,0.1-0.7
		C63.1,74.1,62.9,74,62.7,74.2z"/>
	<path d="M60.9,68.6l0.3-0.2c0.2,0.2,0.4,0.2,0.6,0.1l0.1-0.1c0.2-0.2,0.2-0.4,0-0.7c-0.2-0.3-0.4-0.3-0.7-0.1l-0.1,0.1
		c-0.1,0.1-0.2,0.3-0.2,0.4l-0.3-0.5l-0.3,0.2c-1.5,1-1.4,2.2-0.8,3.4l-0.6,0.4l0,0l-0.9,0.5l0,0l-0.9,0.5l0,0L56.4,73l0,0l-0.9,0.4
		l-0.1,0.2c-0.4,0.2-0.5,0.5-0.5,0.9l0,0c-0.4-0.4-1-0.4-1.8-0.2L52,74.8l0.2,0.6l0,0c-0.4-0.4-0.8-0.4-1.3-0.3l0-0.1l-1,0.3l0,0
		l-1,0.2l0,0l-1,0.2l0,0l-1,0.2l0,0.1c-0.8,0.1-1.1,0.4-1.2,1.1l0,0c-0.2-0.6-0.8-0.9-1.8-0.8l0,0l-0.4,0c-1.1,0-1.6,0.6-1.6,1.8
		l0.1,5.6l0.7,0l-0.1-5.6c0-0.6,0.3-0.9,0.9-0.9l0.2,0l0,0l0.3,0c0.6-0.1,0.9,0.2,0.9,0.8l0.6,5.7l0.7-0.1l-0.6-5.7
		c-0.1-0.6,0.2-0.9,0.8-0.9l0.3,0l0,0l0.9-0.2l0,0l1-0.2l0,0l1-0.2l0,0l1-0.2l0,0.1l0.2-0.1c0.4-0.2,0.7,0,1.1,0.5l1.3,1.6l0.7-0.3
		l0.4-0.5c0.7-0.9,1-1.6,0.7-2.3c-0.1-0.2-0.1-0.3-0.2-0.4c0.1-0.2,0.3-0.3,0.7-0.4l0.1-0.1l0.8-0.4l0,0l0.9-0.5l0,0l0.9-0.5l0,0
		l0,0l0,0l0,0l0.9-0.5l0,0l0.8-0.5c0.2,0.3,0.5,0.6,0.8,1l0.5,0.6L62,73l-0.8-0.8c-0.3-0.3-0.5-0.6-0.8-1
		C59.9,70.3,59.7,69.4,60.9,68.6z M54,77l-0.3,0.3l-1-1.2c-0.2-0.2-0.3-0.4-0.4-0.5l1-0.4c0.8-0.3,1.2-0.2,1.4,0.3
		C54.8,75.9,54.5,76.5,54,77z"/>
	<path d="M26.5,70.3c-1.5-0.8-2.6-0.6-3.5,0.8l-0.8-0.4l0.1-0.1l-0.9-0.6l0,0l-0.8-0.6l0,0l-0.8-0.6l0,0L19,68l-0.1,0l-0.3-0.3
		c-0.5-0.5-1-0.8-1.6-1c-0.2-0.6-0.5-1.2-1-1.6l0,0l-0.7-0.8l0,0l-0.6-0.8l0,0L14,62.6l0,0l-0.6-0.8l-0.3,0
		c-0.3-0.5-0.6-0.7-1.1-0.8l0-0.4c0-0.6,0-1-0.2-1.4c-0.3-0.5-0.8-0.7-1.4-0.5l0,0c0.5-0.4,0.6-1,0.2-1.7c-0.4-0.8-1.2-1-2-0.5
		c-0.2,0.1-0.6,0.3-0.9,0.6l-0.4,0.3l0.4,0.6l0.4-0.3C8.5,57.3,8.8,57.1,9,57c0.4-0.2,0.7-0.1,0.9,0.3l0.1,0.2
		c0.2,0.4,0.1,0.7-0.5,1.1l-0.7,0.4l0.3,0.6l0.7-0.4c0.6-0.3,1-0.2,1.3,0.3c0.2,0.3,0.3,0.7,0.3,1.2l0,0.2l-1.1,0l0,0.6l0.9,0
		c0.7,0,0.9,0.1,1.2,0.5l0.2,0.3l0.3,0.1l0,0l0.4,0.6l0,0l0.6,0.9l0,0l0.7,0.8l0,0l0.6,0.7l0,0l1,1l0,0c-0.9-0.1-1.6,0-2.1,0.6
		c-0.8,0.8-0.8,1.9-0.1,2.7c0.8,0.8,1.9,0.7,2.7-0.1c0.6-0.6,0.7-1.3,0.6-2.1l0,0l1,1l0.1,0l0.7,0.6l0,0l0.8,0.7l0,0l0,0l0,0h0
		l0.8,0.6l0,0l0.8,0.6l-0.1,0.1l1.1,0.6l-3.2,5.7l0.6,0.4l3.3-6c0.7-1.3,1.4-1.6,2.5-1l0.5,0.3c0.9,0.5,1.2,1.4,0.7,2.3
		c-0.3,0.5-0.7,0.9-1.2,1.3l0.4,0.5c0.6-0.5,1.1-1,1.4-1.5C28.3,72.4,27.9,71.1,26.5,70.3z M16.1,69.1c-0.5,0.5-1.1,0.5-1.6,0.1
		l-0.1-0.1c-0.5-0.5-0.4-1.1,0.1-1.6c0.5-0.5,1.2-0.6,1.9-0.3C16.7,68,16.6,68.6,16.1,69.1z"/>
	<path d="M13,70.6c-0.2-0.2-0.4-0.2-0.7,0c-0.2,0.2-0.2,0.5,0,0.7l0.1,0.1c0.2,0.2,0.4,0.2,0.7,0C13.3,71.1,13.3,70.9,13,70.6
		L13,70.6z"/>
	<path d="M9.3,55.6l0.7-0.5l-1.2-1.8c-0.5-0.7-1-0.9-2-0.8l0,0l0.4-0.1c1-0.3,1.3-0.9,1-1.9l0.1,0l-0.2-1l0,0l-0.2-1l0,0l-0.2-1l0,0
		l0-0.4c-0.1-1.1-0.7-1.6-2-1.4L0,46.3L0.1,47l5.6-0.6c0.6-0.1,0.9,0.2,1,0.8l0,0.3l0,0l0.2,1l0,0l0.2,1l0,0l0.2,0.9l-0.1,0l0.1,0.3
		c0.2,0.6,0,0.9-0.5,1.1l-5.4,1.8l0.2,0.7l3.9-1.3c1.2-0.4,1.8-0.3,2.4,0.5l-4.3,2.3L4,56.5l4.3-2.3L9.3,55.6z"/>
	<path d="M2.2,55.7l0.2,0.6c0.1,0.4,0.1,0.7-0.2,0.8C2,57.1,1.8,57,1.8,56.8c-0.1-0.2,0-0.4,0.1-0.5l-0.5-0.2
		c-0.2,0.2-0.2,0.6-0.1,0.9c0.2,0.5,0.7,0.8,1.2,0.6c0.2-0.1,0.3-0.2,0.4-0.3l0,0l0.1,0.3l0.6-0.2l-0.6-1.9L2.2,55.7z"/>
	<path d="M3.8,37.8c-0.3,0-0.6,0.1-0.6,0.5l-0.1,0.8l-0.1,0l-0.6-1.2L2,38.2l0.3,0.6c0.3,0.6,0.5,0.8,0.8,0.8c0.4,0,0.7-0.2,0.7-0.6
		l0.1-0.6l0,0l0.6,1.5L5,39.6l-0.4-1.1C4.4,38,4.2,37.9,3.8,37.8z"/>
	<path d="M6.6,38.1l-0.4,4L7,42.2l0.4-4c0.1-1.5-0.5-2.3-2.1-2.5l-5.1-0.5L0.2,36l5.1,0.5C6.3,36.6,6.7,37,6.6,38.1z"/>
	<path d="M7.8,33.8c1,0.2,1.8,0.8,1.5,2.2l-0.1,0.4l0.8,0.2l0.1-0.4c0.4-1.7-0.5-2.6-1.7-3l0.2-0.7l0,0l0.3-1l0,0l0.3-1l0,0l0.4-1
		l0,0l0.4-0.9l-0.1-0.2l0.1-0.2c0.6-1,0.9-1.8,0.8-3.7L10.7,23l0.4-0.7l-0.8-0.4l-0.1,0.1c-0.2,0.3-0.4,0.7-1,1.3l-1.7,1.8
		c-0.3,0.3-0.4,0.5-0.5,0.6c-0.2,0.4-0.1,0.9,0.4,1.1l0.7,0.4l0.3-0.6l-0.8-0.4l1.4-1.6l1-1.1l0,0l0,1c-0.1,1.6-0.3,2.3-0.9,3.4
		L9,28.2l0.1,0.2l-0.3,0.8l0,0l0,0l0,0l0,0l-0.4,1l0,0l-0.3,1l0,0l-0.3,1l0,0l-0.2,0.9c-0.4-0.1-0.8-0.1-1.3-0.2l-0.8-0.1l0,0.7
		l1.1,0.1C7,33.7,7.4,33.7,7.8,33.8z"/>
	<path d="M15.3,18c0.3,0.2,0.2,0.5-0.4,1.1l-0.9,1l-0.6-0.5L13,20.1l0.6,0.5c0.4,0.4,0.9,0.3,1.2-0.1l0.8-0.9
		c0.6-0.6,0.6-1.1,0.2-1.6l0,0c0.7,0.2,1,0.1,1.5-0.3l0.1,0.1l0.8-0.7l0,0l0.8-0.7l0,0l0.8-0.7l0,0l0.8-0.6l0,0l0.2-0.1
		c1-0.7,1.2-1.6,0.6-2.5c-0.2-0.2-0.4-0.5-0.9-1l-0.6-0.6l-0.5,0.5l0.6,0.6c0.4,0.4,0.7,0.7,0.8,0.9c0.4,0.5,0.2,0.9-0.6,1.4
		L20,14.2l0,0l-0.8,0.6l0,0l-0.8,0.7l0,0l-0.8,0.7l0,0l-0.7,0.7l-0.1-0.1l-0.2,0.2c-0.3,0.3-0.6,0.3-1.7-0.1l-2.8-1.1L12,16.6l2.6,1
		C15,17.8,15.2,17.9,15.3,18z"/>
	<path d="M21.8,15.3L21.8,15.3c-0.3,0.2-0.4,0.4-0.2,0.7c0.2,0.3,0.4,0.3,0.6,0.1l0.1-0.1c0.2-0.2,0.3-0.4,0.1-0.7
		C22.2,15.2,22,15.2,21.8,15.3z"/>
	<path d="M22.4,8.8L22.4,8.8c0.3-0.2,0.4-0.4,0.2-0.7c-0.2-0.3-0.4-0.3-0.6-0.2l-0.1,0.1c-0.2,0.1-0.3,0.3-0.1,0.6
		S22.1,8.9,22.4,8.8z"/>
	<path d="M43.5,6.1l0.2-5.6l-0.7,0L42.7,6c0,0.6-0.3,0.9-0.9,0.9l-0.2,0l0,0l-0.3,0c-0.6,0-0.9-0.2-0.9-0.8L40,0.4l-0.7,0l0.3,5.7
		c0,0.6-0.2,0.9-0.8,0.9l-0.3,0l0,0l-1,0.1l0,0l-1.1,0.1l0,0l-1,0.2l0,0l-1,0.2l0-0.1l-0.2,0.1c-0.4,0.1-0.7,0-1.1-0.6l-1.2-1.7
		L31,5.6L30.7,6c-0.7,0.9-1,1.5-0.9,2.2c0,0.2,0.1,0.3,0.2,0.4c-0.1,0.2-0.3,0.2-0.7,0.4l-0.1,0.1l-0.8,0.3l0,0l0,0l0,0l0,0
		l-0.9,0.4l0,0l0,0l0,0l0,0l-0.9,0.4l0,0l-0.9,0.4l0,0l-0.8,0.5c-0.2-0.3-0.5-0.7-0.8-1l-0.5-0.6L22.9,10l0.7,0.9
		c0.2,0.3,0.5,0.7,0.7,1c0.5,0.9,0.7,1.9-0.6,2.6l-0.3,0.2c-0.2-0.3-0.4-0.3-0.6-0.1l-0.1,0.1c-0.2,0.2-0.3,0.4-0.1,0.7
		c0.2,0.3,0.4,0.3,0.6,0.1l0.1-0.1c0.2-0.1,0.2-0.3,0.2-0.4l0.3,0.5l0.3-0.2c1.5-0.9,1.5-2.1,1-3.3l0.6-0.3l0,0l1-0.5l0,0l0.9-0.4
		l0,0l0.9-0.4l0,0l0.9-0.4l0.1-0.2c0.4-0.2,0.5-0.5,0.5-0.9l0,0c0.4,0.4,1,0.5,1.8,0.3l1.1-0.3l-0.2-0.6l0.1,0
		c0.4,0.4,0.7,0.5,1.3,0.3l0,0.1l1-0.2l0,0l1-0.2l0,0l1-0.1l0,0l1-0.1l0-0.1c0.8-0.1,1.1-0.3,1.2-1l0,0c0.2,0.6,0.7,0.9,1.6,0.9l0,0
		l0.1,0c0,0,0,0,0,0l0,0l0.4,0C42.9,7.8,43.4,7.3,43.5,6.1z M31.8,8.3C31,8.5,30.6,8.4,30.4,8c-0.1-0.4,0.3-0.9,0.7-1.4l0.3-0.3
		l1,1.3c0.1,0.2,0.3,0.4,0.4,0.5L31.8,8.3z"/>
</g>
</svg>
